<svg width="500" height="500" viewBox="0 0 500 500" fill="none" xmlns="http://www.w3.org/2000/svg">
<path d="M409.54 208.59C396.31 189.34 365.46 185.62 348.02 201.16C347.66 185.53 337.31 170.57 322.8 164.74C308.29 158.9 290.47 162.52 279.38 173.55C281.88 164.8 272.69 156.27 263.61 155.8C254.52 155.33 246.13 160.21 238.33 164.91C230.54 169.6 222.08 174.43 213 173.81C203.17 173.15 195 166.29 185.81 162.74C163.33 154.05 134.88 169.47 129.9 193.05C105.02 183.01 73.1003 199.45 66.8403 225.54L431.13 229.79C428.69 219.44 419.94 210.85 409.54 208.59Z" fill="#F5F5F5"/>
<path d="M394.88 91.3599C395.51 86.7799 389.05 83.0199 384.2 82.6299C381.89 82.4399 379.48 82.7999 377.29 82.0299C372.54 80.3699 370.64 74.2399 366 72.2799C362.53 70.8199 358.54 72.1199 355.18 73.8099C351.82 75.4999 348.5 77.6299 344.75 77.8699C341.48 78.0799 337.94 76.8699 335.08 78.4599C332.95 79.6499 331.84 82.0999 329.87 83.5499C327.95 84.9699 325.45 85.2699 323.06 85.3999C320.68 85.5299 318.21 85.5499 316.04 86.5499C313.87 87.5399 312.08 89.8399 312.53 92.1799L394.88 91.3599Z" fill="#FAFAFA"/>
<path d="M77.7701 53.6999C78.1201 51.1499 74.5201 49.0499 71.8101 48.8299C70.5201 48.7299 69.1801 48.9199 67.9501 48.4999C65.3001 47.5799 64.2401 44.1499 61.6501 43.0599C59.7201 42.2399 57.4901 42.9699 55.6101 43.9099C53.7401 44.8499 51.8801 46.0399 49.7901 46.1799C47.9701 46.2999 45.9901 45.6199 44.4001 46.5099C43.2101 47.1699 42.5901 48.5399 41.4901 49.3499C40.4201 50.1399 39.0201 50.3099 37.6901 50.3799C36.3601 50.4499 34.9801 50.4699 33.7701 51.0199C32.5601 51.5699 31.5601 52.8499 31.8101 54.1599L77.7701 53.6999Z" fill="#FAFAFA"/>
<path d="M453.26 138.05C453.98 132.79 446.56 128.46 440.98 128.01C438.32 127.8 435.56 128.2 433.03 127.32C427.57 125.42 425.39 118.36 420.06 116.11C416.08 114.43 411.49 115.93 407.63 117.87C403.77 119.81 399.95 122.26 395.63 122.54C391.88 122.78 387.8 121.39 384.52 123.22C382.07 124.59 380.79 127.41 378.54 129.07C376.33 130.7 373.45 131.04 370.72 131.19C367.98 131.34 365.15 131.37 362.65 132.51C360.16 133.65 358.09 136.29 358.61 138.98L453.26 138.05Z" fill="white"/>
<path d="M443.07 47.7699C443.58 44.0699 438.35 41.0199 434.43 40.6999C432.56 40.5499 430.61 40.8399 428.84 40.2199C425 38.8799 423.46 33.9099 419.71 32.3299C416.91 31.1499 413.68 32.1999 410.96 33.5699C408.24 34.9399 405.55 36.6599 402.52 36.8499C399.88 37.0199 397.01 36.0399 394.7 37.3299C392.98 38.2899 392.08 40.2799 390.49 41.4499C388.94 42.5999 386.91 42.8399 384.98 42.9399C383.05 43.0399 381.06 43.0599 379.3 43.8699C377.55 44.6699 376.09 46.5299 376.46 48.4199L443.07 47.7699Z" fill="#EBEBEB"/>
<path d="M92.8201 136.2C93.2001 133.44 89.3101 131.18 86.3901 130.94C85.0001 130.83 83.5501 131.04 82.2301 130.58C79.3701 129.58 78.2301 125.89 75.4401 124.71C73.3501 123.83 70.9501 124.61 68.9301 125.63C66.9101 126.65 64.9101 127.93 62.6501 128.07C60.6801 128.2 58.5501 127.47 56.8301 128.43C55.5501 129.15 54.8801 130.62 53.7001 131.49C52.5401 132.34 51.0401 132.52 49.6001 132.6C48.1601 132.68 46.6801 132.69 45.3801 133.29C44.0701 133.89 42.9901 135.27 43.2701 136.68L92.8201 136.2Z" fill="#EBEBEB"/>
<path d="M195.62 93.93C196.42 88.11 188.2 83.32 182.03 82.82C179.09 82.58 176.03 83.03 173.24 82.06C167.2 79.95 164.78 72.14 158.88 69.66C154.47 67.8 149.39 69.46 145.12 71.61C140.85 73.76 136.62 76.47 131.85 76.77C127.7 77.04 123.19 75.5 119.55 77.52C116.84 79.03 115.42 82.15 112.93 83.99C110.49 85.79 107.3 86.17 104.27 86.34C101.24 86.5 98.1003 86.54 95.3403 87.8C92.5803 89.06 90.3003 91.98 90.8703 94.96L195.62 93.93Z" fill="#F5F5F5"/>
<path d="M426.29 438.65C426.27 438.66 426.13 438.47 425.89 438.08C425.61 437.62 425.26 437.06 424.84 436.38C423.94 434.9 422.69 432.72 421.17 430C418.14 424.57 414.17 416.94 409.89 408.45C405.61 399.96 401.71 392.3 398.79 386.81C397.36 384.14 396.18 381.95 395.31 380.32C394.93 379.61 394.63 379.03 394.37 378.55C394.16 378.14 394.06 377.92 394.08 377.91C394.1 377.9 394.24 378.09 394.48 378.48C394.76 378.94 395.11 379.5 395.52 380.18C396.42 381.66 397.67 383.84 399.19 386.56C402.22 391.99 406.19 399.62 410.47 408.12C414.75 416.61 418.65 424.27 421.57 429.76C423 432.42 424.18 434.62 425.05 436.25C425.43 436.96 425.73 437.54 425.99 438.02C426.21 438.42 426.31 438.64 426.29 438.65Z" fill="#E0E0E0"/>
<path d="M484.73 478.35C484.73 478.49 379.18 478.61 249.01 478.61C118.8 478.61 13.27 478.49 13.27 478.35C13.27 478.21 118.79 478.09 249.01 478.09C379.18 478.09 484.73 478.21 484.73 478.35Z" fill="#263238"/>
<path d="M423.35 472.82H70.7702C62.7202 472.82 56.2002 466.3 56.2002 458.25V234.96C56.2002 226.91 62.7202 220.39 70.7702 220.39H423.35C431.4 220.39 437.92 226.91 437.92 234.96V458.25C437.92 466.29 431.4 472.82 423.35 472.82Z" fill="#191919"/>
<path d="M437.42 478.6H58.71C49.09 478.6 41.29 470.8 41.29 461.18V456.52H454.85V461.18C454.85 470.8 447.04 478.6 437.42 478.6Z" fill="#191919"/>
<path d="M426.6 230.42H66.4502V443.59H426.6V230.42Z" fill="#7B7B7B"/>
<path d="M209.43 454.15L214.57 462.31H286.78L291.54 454.15H209.43Z" fill="#7B7B7B"/>
<path d="M416.66 442.91H77.1401C75.3301 442.91 73.8701 441.44 73.8701 439.64V240.91C73.8701 239.1 75.3401 237.64 77.1401 237.64H416.65C418.46 237.64 419.92 239.11 419.92 240.91V439.63C419.93 441.44 418.46 442.91 416.66 442.91Z" fill="#F4F4F4"/>
<path d="M102.25 245.57C102.25 247.1 101.01 248.33 99.49 248.33C97.96 248.33 96.73 247.09 96.73 245.57C96.73 244.04 97.97 242.81 99.49 242.81C101.02 242.8 102.25 244.04 102.25 245.57Z" fill="#263238"/>
<path d="M85.5 245.57C85.5 247.1 84.26 248.33 82.74 248.33C81.21 248.33 79.98 247.09 79.98 245.57C79.98 244.04 81.22 242.81 82.74 242.81C84.27 242.8 85.5 244.04 85.5 245.57Z" fill="#263238"/>
<path d="M93.54 245.57C93.54 247.1 92.3 248.33 90.78 248.33C89.25 248.33 88.02 247.09 88.02 245.57C88.02 244.04 89.26 242.81 90.78 242.81C92.31 242.8 93.54 244.04 93.54 245.57Z" fill="#263238"/>
<path d="M434.64 454.15C434.64 454.29 349.92 454.4 245.43 454.4C140.91 454.4 56.2002 454.29 56.2002 454.15C56.2002 454.01 140.9 453.9 245.43 453.9C349.92 453.9 434.64 454.01 434.64 454.15Z" fill="#263238"/>
<path d="M383.11 334.88C373.37 343.02 368.89 356.95 372.07 369.24C363.09 367.45 353.3 370.4 346.81 376.86C340.32 383.31 337.3 393.08 339.03 402.07C329.12 395.25 313.97 397.81 306.84 407.5C306.69 401.1 306.44 394.35 303.07 388.9C299.7 383.45 292.07 380.09 286.68 383.55C290.74 378.94 291.35 371.63 288.12 366.41C284.89 361.19 278.07 358.48 272.13 360.06C271.98 352.37 267.11 298 263.09 252.11H229.04C225.09 297.19 220.47 348.97 220.32 356.46C214.38 354.88 207.57 357.59 204.33 362.81C201.1 368.03 201.71 375.34 205.77 379.95C200.38 376.49 192.74 379.85 189.38 385.3C186.01 390.75 185.77 397.49 185.61 403.9C178.48 394.21 163.34 391.65 153.42 398.47C155.15 389.48 152.14 379.71 145.64 373.26C139.15 366.81 129.36 363.86 120.38 365.64C123.56 353.35 119.08 339.42 109.34 331.28C99.6001 323.14 85.0901 321.22 73.5601 326.53V443.1H418.86V330.13C407.36 324.82 392.85 326.74 383.11 334.88Z" fill="#FF5F00"/>
<g opacity="0.8">
<path d="M383.11 334.88C373.37 343.02 368.89 356.95 372.07 369.24C363.09 367.45 353.3 370.4 346.81 376.86C340.32 383.31 337.3 393.08 339.03 402.07C329.12 395.25 313.97 397.81 306.84 407.5C306.69 401.1 306.44 394.35 303.07 388.9C299.7 383.45 292.07 380.09 286.68 383.55C290.74 378.94 291.35 371.63 288.12 366.41C284.89 361.19 278.07 358.48 272.13 360.06C271.98 352.37 267.11 298 263.09 252.11H229.04C225.09 297.19 220.47 348.97 220.32 356.46C214.38 354.88 207.57 357.59 204.33 362.81C201.1 368.03 201.71 375.34 205.77 379.95C200.38 376.49 192.74 379.85 189.38 385.3C186.01 390.75 185.77 397.49 185.61 403.9C178.48 394.21 163.34 391.65 153.42 398.47C155.15 389.48 152.14 379.71 145.64 373.26C139.15 366.81 129.36 363.86 120.38 365.64C123.56 353.35 119.08 339.42 109.34 331.28C99.6001 323.14 85.0901 321.22 73.5601 326.53V443.1H418.86V330.13C407.36 324.82 392.85 326.74 383.11 334.88Z" fill="#FF9B60"/>
</g>
<path d="M381.03 419.84C368.68 411.54 352.85 408.62 338.35 411.96C323.85 415.3 310.89 424.85 303.42 437.72C300.42 433.61 296.39 430.31 291.84 428.02C292.16 427.16 292.44 426.28 292.64 425.38C294.68 416.45 290.84 406.47 283.34 401.22C278.02 397.49 271.1 396.32 264.78 397.72L254.56 252.11H241.13V385.95C232.83 387.22 227.04 397.05 229.97 404.93C224.19 405.77 218.95 409.67 216.48 414.96C215.67 416.68 215.56 420.32 216.25 424.44C206.17 424.58 196.18 429.57 190.21 437.73C182.73 424.87 169.78 415.31 155.28 411.97C140.78 408.63 124.95 411.55 112.6 419.85C109.09 402.85 90.0802 390.77 73.2002 394.81V443.34L228.99 443.14C230.02 443.43 231.11 443.6 232.28 443.6L270.37 443.15L420.44 443.35V394.8C403.55 390.76 384.54 402.84 381.03 419.84Z" fill="#FFFDFD"/>
<g opacity="0.6">
<path d="M381.03 419.84C368.68 411.54 352.85 408.62 338.35 411.96C323.85 415.3 310.89 424.85 303.42 437.72C300.42 433.61 296.39 430.31 291.84 428.02C292.16 427.16 292.44 426.28 292.64 425.38C294.68 416.45 290.84 406.47 283.34 401.22C278.02 397.49 271.1 396.32 264.78 397.72L254.56 252.11H241.13V385.95C232.83 387.22 227.04 397.05 229.97 404.93C224.19 405.77 218.95 409.67 216.48 414.96C215.67 416.68 215.56 420.32 216.25 424.44C206.17 424.58 196.18 429.57 190.21 437.73C182.73 424.87 169.78 415.31 155.28 411.97C140.78 408.63 124.95 411.55 112.6 419.85C109.09 402.85 90.0802 390.77 73.2002 394.81V443.34L228.99 443.14C230.02 443.43 231.11 443.6 232.28 443.6L270.37 443.15L420.44 443.35V394.8C403.55 390.76 384.54 402.84 381.03 419.84Z" fill="#FF5F00"/>
</g>
<path d="M280.246 372H211.754C199.742 372 190 364.677 190 355.647V353.353C190 344.323 199.742 337 211.754 337H280.246C292.258 337 302 344.323 302 353.353V355.647C302 364.677 292.258 372 280.246 372Z" fill="url(#paint0_linear_1185_494)"/>
<path d="M204.838 357.219L206.848 350.469H208.805L205.834 359H204.545L204.838 357.219ZM202.986 350.469L204.99 357.219L205.295 359H203.994L201.041 350.469H202.986ZM208.957 355.895V355.771C208.957 355.307 209.023 354.879 209.156 354.488C209.289 354.094 209.482 353.752 209.736 353.463C209.99 353.174 210.303 352.949 210.674 352.789C211.045 352.625 211.471 352.543 211.951 352.543C212.432 352.543 212.859 352.625 213.234 352.789C213.609 352.949 213.924 353.174 214.178 353.463C214.436 353.752 214.631 354.094 214.764 354.488C214.896 354.879 214.963 355.307 214.963 355.771V355.895C214.963 356.355 214.896 356.783 214.764 357.178C214.631 357.568 214.436 357.91 214.178 358.203C213.924 358.492 213.611 358.717 213.24 358.877C212.869 359.037 212.443 359.117 211.963 359.117C211.482 359.117 211.055 359.037 210.68 358.877C210.309 358.717 209.994 358.492 209.736 358.203C209.482 357.91 209.289 357.568 209.156 357.178C209.023 356.783 208.957 356.355 208.957 355.895ZM210.645 355.771V355.895C210.645 356.16 210.668 356.408 210.715 356.639C210.762 356.869 210.836 357.072 210.938 357.248C211.043 357.42 211.18 357.555 211.348 357.652C211.516 357.75 211.721 357.799 211.963 357.799C212.197 357.799 212.398 357.75 212.566 357.652C212.734 357.555 212.869 357.42 212.971 357.248C213.072 357.072 213.146 356.869 213.193 356.639C213.244 356.408 213.27 356.16 213.27 355.895V355.771C213.27 355.514 213.244 355.271 213.193 355.045C213.146 354.814 213.07 354.611 212.965 354.436C212.863 354.256 212.729 354.115 212.561 354.014C212.393 353.912 212.189 353.861 211.951 353.861C211.713 353.861 211.51 353.912 211.342 354.014C211.178 354.115 211.043 354.256 210.938 354.436C210.836 354.611 210.762 354.814 210.715 355.045C210.668 355.271 210.645 355.514 210.645 355.771ZM219.422 357.57V354.746C219.422 354.543 219.389 354.369 219.322 354.225C219.256 354.076 219.152 353.961 219.012 353.879C218.875 353.797 218.697 353.756 218.479 353.756C218.291 353.756 218.129 353.789 217.992 353.855C217.855 353.918 217.75 354.01 217.676 354.131C217.602 354.248 217.564 354.387 217.564 354.547H215.877C215.877 354.277 215.939 354.021 216.064 353.779C216.189 353.537 216.371 353.324 216.609 353.141C216.848 352.953 217.131 352.807 217.459 352.701C217.791 352.596 218.162 352.543 218.572 352.543C219.064 352.543 219.502 352.625 219.885 352.789C220.268 352.953 220.568 353.199 220.787 353.527C221.01 353.855 221.121 354.266 221.121 354.758V357.471C221.121 357.818 221.143 358.104 221.186 358.326C221.229 358.545 221.291 358.736 221.373 358.9V359H219.668C219.586 358.828 219.523 358.613 219.48 358.355C219.441 358.094 219.422 357.832 219.422 357.57ZM219.645 355.139L219.656 356.094H218.713C218.49 356.094 218.297 356.119 218.133 356.17C217.969 356.221 217.834 356.293 217.729 356.387C217.623 356.477 217.545 356.582 217.494 356.703C217.447 356.824 217.424 356.957 217.424 357.102C217.424 357.246 217.457 357.377 217.523 357.494C217.59 357.607 217.686 357.697 217.811 357.764C217.936 357.826 218.082 357.857 218.25 357.857C218.504 357.857 218.725 357.807 218.912 357.705C219.1 357.604 219.244 357.479 219.346 357.33C219.451 357.182 219.506 357.041 219.51 356.908L219.955 357.623C219.893 357.783 219.807 357.949 219.697 358.121C219.592 358.293 219.457 358.455 219.293 358.607C219.129 358.756 218.932 358.879 218.701 358.977C218.471 359.07 218.197 359.117 217.881 359.117C217.479 359.117 217.113 359.037 216.785 358.877C216.461 358.713 216.203 358.488 216.012 358.203C215.824 357.914 215.73 357.586 215.73 357.219C215.73 356.887 215.793 356.592 215.918 356.334C216.043 356.076 216.227 355.859 216.469 355.684C216.715 355.504 217.021 355.369 217.389 355.279C217.756 355.186 218.182 355.139 218.666 355.139H219.645ZM224.109 354.043V359H222.422V352.66H224.01L224.109 354.043ZM226.02 352.619L225.99 354.184C225.908 354.172 225.809 354.162 225.691 354.154C225.578 354.143 225.475 354.137 225.381 354.137C225.143 354.137 224.936 354.168 224.76 354.23C224.588 354.289 224.443 354.377 224.326 354.494C224.213 354.611 224.127 354.754 224.068 354.922C224.014 355.09 223.982 355.281 223.975 355.496L223.635 355.391C223.635 354.98 223.676 354.604 223.758 354.26C223.84 353.912 223.959 353.609 224.115 353.352C224.275 353.094 224.471 352.895 224.701 352.754C224.932 352.613 225.195 352.543 225.492 352.543C225.586 352.543 225.682 352.551 225.779 352.566C225.877 352.578 225.957 352.596 226.02 352.619ZM232.424 357.799C232.631 357.799 232.814 357.76 232.975 357.682C233.135 357.6 233.26 357.486 233.35 357.342C233.443 357.193 233.492 357.02 233.496 356.82H235.084C235.08 357.266 234.961 357.662 234.727 358.01C234.492 358.354 234.178 358.625 233.783 358.824C233.389 359.02 232.947 359.117 232.459 359.117C231.967 359.117 231.537 359.035 231.17 358.871C230.807 358.707 230.504 358.48 230.262 358.191C230.02 357.898 229.838 357.559 229.717 357.172C229.596 356.781 229.535 356.363 229.535 355.918V355.748C229.535 355.299 229.596 354.881 229.717 354.494C229.838 354.104 230.02 353.764 230.262 353.475C230.504 353.182 230.807 352.953 231.17 352.789C231.533 352.625 231.959 352.543 232.447 352.543C232.967 352.543 233.422 352.643 233.812 352.842C234.207 353.041 234.516 353.326 234.738 353.697C234.965 354.064 235.08 354.5 235.084 355.004H233.496C233.492 354.793 233.447 354.602 233.361 354.43C233.279 354.258 233.158 354.121 232.998 354.02C232.842 353.914 232.648 353.861 232.418 353.861C232.172 353.861 231.971 353.914 231.814 354.02C231.658 354.121 231.537 354.262 231.451 354.441C231.365 354.617 231.305 354.818 231.27 355.045C231.238 355.268 231.223 355.502 231.223 355.748V355.918C231.223 356.164 231.238 356.4 231.27 356.627C231.301 356.854 231.359 357.055 231.445 357.23C231.535 357.406 231.658 357.545 231.814 357.646C231.971 357.748 232.174 357.799 232.424 357.799ZM235.793 355.895V355.771C235.793 355.307 235.859 354.879 235.992 354.488C236.125 354.094 236.318 353.752 236.572 353.463C236.826 353.174 237.139 352.949 237.51 352.789C237.881 352.625 238.307 352.543 238.787 352.543C239.268 352.543 239.695 352.625 240.07 352.789C240.445 352.949 240.76 353.174 241.014 353.463C241.271 353.752 241.467 354.094 241.6 354.488C241.732 354.879 241.799 355.307 241.799 355.771V355.895C241.799 356.355 241.732 356.783 241.6 357.178C241.467 357.568 241.271 357.91 241.014 358.203C240.76 358.492 240.447 358.717 240.076 358.877C239.705 359.037 239.279 359.117 238.799 359.117C238.318 359.117 237.891 359.037 237.516 358.877C237.145 358.717 236.83 358.492 236.572 358.203C236.318 357.91 236.125 357.568 235.992 357.178C235.859 356.783 235.793 356.355 235.793 355.895ZM237.48 355.771V355.895C237.48 356.16 237.504 356.408 237.551 356.639C237.598 356.869 237.672 357.072 237.773 357.248C237.879 357.42 238.016 357.555 238.184 357.652C238.352 357.75 238.557 357.799 238.799 357.799C239.033 357.799 239.234 357.75 239.402 357.652C239.57 357.555 239.705 357.42 239.807 357.248C239.908 357.072 239.982 356.869 240.029 356.639C240.08 356.408 240.105 356.16 240.105 355.895V355.771C240.105 355.514 240.08 355.271 240.029 355.045C239.982 354.814 239.906 354.611 239.801 354.436C239.699 354.256 239.564 354.115 239.396 354.014C239.229 353.912 239.025 353.861 238.787 353.861C238.549 353.861 238.346 353.912 238.178 354.014C238.014 354.115 237.879 354.256 237.773 354.436C237.672 354.611 237.598 354.814 237.551 355.045C237.504 355.271 237.48 355.514 237.48 355.771ZM244.523 353.973V359H242.83V352.66H244.418L244.523 353.973ZM244.289 355.607H243.82C243.82 355.166 243.873 354.76 243.979 354.389C244.088 354.014 244.246 353.689 244.453 353.416C244.664 353.139 244.924 352.924 245.232 352.771C245.541 352.619 245.898 352.543 246.305 352.543C246.586 352.543 246.844 352.586 247.078 352.672C247.312 352.754 247.514 352.885 247.682 353.064C247.854 353.24 247.986 353.471 248.08 353.756C248.174 354.037 248.221 354.375 248.221 354.77V359H246.533V354.957C246.533 354.668 246.494 354.445 246.416 354.289C246.338 354.133 246.227 354.023 246.082 353.961C245.941 353.898 245.771 353.867 245.572 353.867C245.354 353.867 245.162 353.912 244.998 354.002C244.838 354.092 244.705 354.217 244.6 354.377C244.494 354.533 244.416 354.717 244.365 354.928C244.314 355.139 244.289 355.365 244.289 355.607ZM248.062 355.414L247.459 355.49C247.459 355.076 247.51 354.691 247.611 354.336C247.717 353.98 247.871 353.668 248.074 353.398C248.281 353.129 248.537 352.92 248.842 352.771C249.146 352.619 249.498 352.543 249.896 352.543C250.201 352.543 250.479 352.588 250.729 352.678C250.979 352.764 251.191 352.902 251.367 353.094C251.547 353.281 251.684 353.527 251.777 353.832C251.875 354.137 251.924 354.51 251.924 354.951V359H250.23V354.951C250.23 354.658 250.191 354.436 250.113 354.283C250.039 354.127 249.93 354.02 249.785 353.961C249.645 353.898 249.477 353.867 249.281 353.867C249.078 353.867 248.9 353.908 248.748 353.99C248.596 354.068 248.469 354.178 248.367 354.318C248.266 354.459 248.189 354.623 248.139 354.811C248.088 354.994 248.062 355.195 248.062 355.414ZM259.641 357.57V354.746C259.641 354.543 259.607 354.369 259.541 354.225C259.475 354.076 259.371 353.961 259.23 353.879C259.094 353.797 258.916 353.756 258.697 353.756C258.51 353.756 258.348 353.789 258.211 353.855C258.074 353.918 257.969 354.01 257.895 354.131C257.82 354.248 257.783 354.387 257.783 354.547H256.096C256.096 354.277 256.158 354.021 256.283 353.779C256.408 353.537 256.59 353.324 256.828 353.141C257.066 352.953 257.35 352.807 257.678 352.701C258.01 352.596 258.381 352.543 258.791 352.543C259.283 352.543 259.721 352.625 260.104 352.789C260.486 352.953 260.787 353.199 261.006 353.527C261.229 353.855 261.34 354.266 261.34 354.758V357.471C261.34 357.818 261.361 358.104 261.404 358.326C261.447 358.545 261.51 358.736 261.592 358.9V359H259.887C259.805 358.828 259.742 358.613 259.699 358.355C259.66 358.094 259.641 357.832 259.641 357.57ZM259.863 355.139L259.875 356.094H258.932C258.709 356.094 258.516 356.119 258.352 356.17C258.188 356.221 258.053 356.293 257.947 356.387C257.842 356.477 257.764 356.582 257.713 356.703C257.666 356.824 257.643 356.957 257.643 357.102C257.643 357.246 257.676 357.377 257.742 357.494C257.809 357.607 257.904 357.697 258.029 357.764C258.154 357.826 258.301 357.857 258.469 357.857C258.723 357.857 258.943 357.807 259.131 357.705C259.318 357.604 259.463 357.479 259.564 357.33C259.67 357.182 259.725 357.041 259.729 356.908L260.174 357.623C260.111 357.783 260.025 357.949 259.916 358.121C259.811 358.293 259.676 358.455 259.512 358.607C259.348 358.756 259.15 358.879 258.92 358.977C258.689 359.07 258.416 359.117 258.1 359.117C257.697 359.117 257.332 359.037 257.004 358.877C256.68 358.713 256.422 358.488 256.23 358.203C256.043 357.914 255.949 357.586 255.949 357.219C255.949 356.887 256.012 356.592 256.137 356.334C256.262 356.076 256.445 355.859 256.688 355.684C256.934 355.504 257.24 355.369 257.607 355.279C257.975 355.186 258.4 355.139 258.885 355.139H259.863ZM267.316 353.973V359H265.623V352.66H267.211L267.316 353.973ZM267.082 355.607H266.613C266.613 355.166 266.666 354.76 266.771 354.389C266.881 354.014 267.039 353.689 267.246 353.416C267.457 353.139 267.717 352.924 268.025 352.771C268.334 352.619 268.691 352.543 269.098 352.543C269.379 352.543 269.637 352.586 269.871 352.672C270.105 352.754 270.307 352.885 270.475 353.064C270.646 353.24 270.779 353.471 270.873 353.756C270.967 354.037 271.014 354.375 271.014 354.77V359H269.326V354.957C269.326 354.668 269.287 354.445 269.209 354.289C269.131 354.133 269.02 354.023 268.875 353.961C268.734 353.898 268.564 353.867 268.365 353.867C268.146 353.867 267.955 353.912 267.791 354.002C267.631 354.092 267.498 354.217 267.393 354.377C267.287 354.533 267.209 354.717 267.158 354.928C267.107 355.139 267.082 355.365 267.082 355.607ZM270.855 355.414L270.252 355.49C270.252 355.076 270.303 354.691 270.404 354.336C270.51 353.98 270.664 353.668 270.867 353.398C271.074 353.129 271.33 352.92 271.635 352.771C271.939 352.619 272.291 352.543 272.689 352.543C272.994 352.543 273.271 352.588 273.521 352.678C273.771 352.764 273.984 352.902 274.16 353.094C274.34 353.281 274.477 353.527 274.57 353.832C274.668 354.137 274.717 354.51 274.717 354.951V359H273.023V354.951C273.023 354.658 272.984 354.436 272.906 354.283C272.832 354.127 272.723 354.02 272.578 353.961C272.438 353.898 272.27 353.867 272.074 353.867C271.871 353.867 271.693 353.908 271.541 353.99C271.389 354.068 271.262 354.178 271.16 354.318C271.059 354.459 270.982 354.623 270.932 354.811C270.881 354.994 270.855 355.195 270.855 355.414ZM277.805 352.66V359H276.111V352.66H277.805ZM276.006 351.008C276.006 350.762 276.092 350.559 276.264 350.398C276.436 350.238 276.666 350.158 276.955 350.158C277.24 350.158 277.469 350.238 277.641 350.398C277.816 350.559 277.904 350.762 277.904 351.008C277.904 351.254 277.816 351.457 277.641 351.617C277.469 351.777 277.24 351.857 276.955 351.857C276.666 351.857 276.436 351.777 276.264 351.617C276.092 351.457 276.006 351.254 276.006 351.008ZM280.559 352.66L281.607 354.588L282.686 352.66H284.484L282.691 355.76L284.566 359H282.762L281.619 356.961L280.477 359H278.672L280.547 355.76L278.754 352.66H280.559ZM287.209 350.469L287.016 356.393H285.609L285.41 350.469H287.209ZM285.363 358.227C285.363 357.977 285.449 357.77 285.621 357.605C285.797 357.438 286.027 357.354 286.312 357.354C286.602 357.354 286.832 357.438 287.004 357.605C287.176 357.77 287.262 357.977 287.262 358.227C287.262 358.469 287.176 358.674 287.004 358.842C286.832 359.01 286.602 359.094 286.312 359.094C286.027 359.094 285.797 359.01 285.621 358.842C285.449 358.674 285.363 358.469 285.363 358.227Z" fill="#F4F4F4"/>
<path d="M233.25 206.53C225.56 210.18 222.09 220.7 226.09 228.21C227.67 231.17 230.24 233.78 230.58 237.12C231.1 242.24 226.26 246.24 224.76 251.17C223.01 256.94 226.84 263.79 232.68 265.32C235.31 266.01 238.46 265.89 240.22 267.96C242.47 270.6 240.85 274.99 242.77 277.88C244.51 280.49 248.56 280.61 251.17 278.88C253.78 277.15 255.22 274.14 256.25 271.18C257.28 268.22 258.05 265.11 259.83 262.53C261.79 259.69 264.78 257.76 267.16 255.27C272.88 249.27 274.63 240.26 273.34 232.06C272.05 223.87 268.08 216.34 263.59 209.36" fill="#FF5F00"/>
<g opacity="0.3">
<path d="M233.25 206.53C225.56 210.18 222.09 220.7 226.09 228.21C227.67 231.17 230.24 233.78 230.58 237.12C231.1 242.24 226.26 246.24 224.76 251.17C223.01 256.94 226.84 263.79 232.68 265.32C235.31 266.01 238.46 265.89 240.22 267.96C242.47 270.6 240.85 274.99 242.77 277.88C244.51 280.49 248.56 280.61 251.17 278.88C253.78 277.15 255.22 274.14 256.25 271.18C257.28 268.22 258.05 265.11 259.83 262.53C261.79 259.69 264.78 257.76 267.16 255.27C272.88 249.27 274.63 240.26 273.34 232.06C272.05 223.87 268.08 216.34 263.59 209.36" fill="white"/>
</g>
<path d="M240 210.85C233.49 213.72 230.64 222.75 234.32 228.83C236.57 232.55 240.93 235.9 239.87 240.12C239.15 242.98 236.09 244.73 235.21 247.54C234.04 251.28 237.58 255.25 241.48 255.72C245.37 256.19 249.15 254.11 252.09 251.52C262.31 242.55 264.79 224.92 258.43 212.9" fill="#FF5F00"/>
<path d="M273.559 153.61C273.559 153.61 306.999 175.73 303.349 213.98L272.609 200.18L273.559 153.61Z" fill="#FF5F00"/>
<path d="M218 199.43L225.6 212.02H265.01L272.609 200.15L218 199.43Z" fill="#263238"/>
<path d="M243.26 72.4C227.68 73.44 215.67 86.55 216 102.16L218 200.15H272.6L274.42 102.1C274.75 84.98 260.35 71.26 243.26 72.4Z" fill="#FF5F00"/>
<g opacity="0.8">
<path d="M243.26 72.4C227.68 73.44 215.67 86.55 216 102.16L218 200.15H272.6L274.42 102.1C274.75 84.98 260.35 71.26 243.26 72.4Z" fill="white"/>
</g>
<path d="M217.04 153.61C217.04 153.61 183.6 175.73 187.25 213.98L217.99 200.18L217.04 153.61Z" fill="#FF5F00"/>
<path d="M216.3 98.91C227.84 88.8 264.09 89.02 273.83 97.25C271.33 60.87 243.55 47.27 243.55 47.27C215.13 66.93 216.3 98.91 216.3 98.91Z" fill="#FF5F00"/>
<path d="M243.55 47.26C243.55 47.26 243.66 47.36 243.88 47.55C244.1 47.75 244.41 48.05 244.82 48.43C245.23 48.82 245.74 49.3 246.34 49.87C246.64 50.16 246.96 50.46 247.31 50.79C247.63 51.14 247.98 51.51 248.34 51.91C249.06 52.7 249.88 53.57 250.75 54.55C251.57 55.57 252.46 56.68 253.42 57.87C253.87 58.48 254.32 59.14 254.79 59.81C255.25 60.49 255.77 61.15 256.21 61.9C257.1 63.38 258.1 64.93 258.94 66.65C260.72 70.06 262.33 73.98 263.45 78.37C264.03 80.56 264.46 82.86 264.76 85.25C264.92 86.44 265.02 87.67 265.18 88.88C265.33 90.1 265.3 91.4 265.31 92.65C265.33 102.81 265.18 113.97 265.05 125.68C264.77 149.12 264.44 170.33 264.19 185.69C264.05 193.36 263.95 199.57 263.87 203.87C263.83 206.01 263.79 207.67 263.77 208.81C263.75 209.37 263.74 209.8 263.74 210.1C263.73 210.39 263.72 210.54 263.72 210.54C263.72 210.54 263.71 210.39 263.71 210.1C263.71 209.8 263.71 209.37 263.72 208.81C263.73 207.67 263.75 206.01 263.77 203.87C263.82 199.57 263.9 193.36 264 185.68C264.2 170.32 264.47 149.1 264.78 125.67C264.91 113.96 265.06 102.79 265.06 92.64C265.05 91.36 265.08 90.14 264.94 88.91C264.77 87.67 264.68 86.46 264.52 85.27C264.22 82.89 263.8 80.59 263.23 78.41C262.12 74.04 260.53 70.13 258.77 66.73C257.93 65 256.95 63.46 256.06 61.98C255.62 61.23 255.11 60.57 254.65 59.89C254.18 59.22 253.74 58.57 253.3 57.95C252.35 56.76 251.47 55.65 250.66 54.62C249.8 53.64 248.99 52.76 248.27 51.97C247.91 51.57 247.57 51.2 247.25 50.85C246.91 50.52 246.59 50.21 246.3 49.92C245.71 49.34 245.21 48.86 244.81 48.46C244.41 48.07 244.11 47.77 243.89 47.56C243.65 47.37 243.55 47.26 243.55 47.26Z" fill="#263238"/>
<path d="M256.324 123.687C258.041 115.91 253.574 108.312 246.347 106.717C239.121 105.121 231.87 110.132 230.153 117.909C228.436 125.685 232.903 133.283 240.13 134.879C247.356 136.474 254.607 131.463 256.324 123.687Z" fill="#FAFAFA"/>
<path d="M246.339 106.72C246.339 106.73 246.259 106.72 246.109 106.7C245.949 106.68 245.729 106.65 245.459 106.61C245.309 106.59 245.149 106.56 244.979 106.54C244.799 106.53 244.599 106.52 244.389 106.51C244.179 106.5 243.949 106.49 243.709 106.48C243.469 106.48 243.209 106.51 242.929 106.52C242.379 106.53 241.779 106.65 241.119 106.76C240.469 106.92 239.759 107.09 239.039 107.4C237.589 107.97 236.029 108.88 234.599 110.23C233.179 111.58 231.859 113.34 231.029 115.5C230.829 116.04 230.609 116.58 230.479 117.17C230.409 117.46 230.319 117.75 230.259 118.04C230.209 118.34 230.159 118.64 230.109 118.94L230.029 119.4L229.999 119.86C229.979 120.17 229.949 120.48 229.929 120.8C229.939 121.12 229.939 121.43 229.949 121.75L229.959 122.23L230.009 122.71C230.259 125.28 231.209 127.94 232.969 130.15C234.669 132.4 237.259 134.06 240.169 134.73C243.089 135.34 246.139 134.93 248.629 133.61C251.149 132.35 253.139 130.33 254.449 128.1L254.699 127.69L254.909 127.26C255.049 126.97 255.189 126.69 255.329 126.4C255.439 126.1 255.549 125.81 255.659 125.52L255.819 125.08L255.939 124.63C256.019 124.33 256.099 124.04 256.179 123.75C256.249 123.46 256.289 123.16 256.339 122.86C256.469 122.28 256.489 121.69 256.539 121.11C256.689 118.8 256.239 116.65 255.519 114.83C254.789 113.01 253.769 111.52 252.689 110.39C252.169 109.81 251.589 109.36 251.069 108.94C250.519 108.56 250.019 108.2 249.519 107.96C249.279 107.83 249.049 107.7 248.829 107.6C248.599 107.51 248.389 107.42 248.199 107.34C247.999 107.26 247.819 107.18 247.659 107.12C247.489 107.07 247.329 107.02 247.189 106.98C246.919 106.9 246.709 106.84 246.559 106.79C246.409 106.75 246.339 106.73 246.339 106.72C246.339 106.72 246.419 106.73 246.559 106.77C246.719 106.81 246.929 106.86 247.199 106.93C247.339 106.97 247.499 107.01 247.669 107.05C247.839 107.12 248.019 107.19 248.219 107.26C248.419 107.34 248.629 107.42 248.859 107.51C249.079 107.61 249.309 107.74 249.559 107.86C250.069 108.09 250.569 108.45 251.129 108.83C251.659 109.25 252.249 109.7 252.779 110.28C253.879 111.41 254.939 112.91 255.679 114.75C256.419 116.59 256.889 118.78 256.749 121.12C256.709 121.7 256.679 122.3 256.549 122.89C256.499 123.19 256.459 123.49 256.389 123.79C256.309 124.09 256.229 124.39 256.149 124.69L256.029 125.14L255.859 125.58C255.749 125.88 255.639 126.18 255.529 126.48C255.389 126.77 255.249 127.06 255.109 127.35L254.899 127.79L254.649 128.21C253.329 130.48 251.299 132.54 248.729 133.84C246.189 135.19 243.059 135.62 240.079 134.99C237.109 134.3 234.459 132.59 232.719 130.3C230.929 128.04 229.959 125.32 229.719 122.71L229.669 122.22L229.659 121.73C229.659 121.4 229.649 121.08 229.649 120.76C229.679 120.44 229.699 120.12 229.719 119.81L229.759 119.34L229.839 118.88C229.889 118.57 229.949 118.27 229.999 117.96C230.059 117.66 230.159 117.37 230.229 117.07C230.369 116.48 230.589 115.93 230.799 115.38C231.659 113.19 233.009 111.41 234.449 110.05C235.909 108.69 237.499 107.78 238.969 107.21C239.699 106.91 240.419 106.75 241.079 106.59C241.749 106.49 242.359 106.38 242.919 106.38C243.199 106.37 243.459 106.35 243.699 106.35C243.939 106.37 244.169 106.38 244.389 106.39C244.599 106.4 244.799 106.42 244.979 106.43C245.159 106.46 245.319 106.49 245.459 106.52C245.739 106.57 245.949 106.61 246.109 106.64C246.269 106.7 246.339 106.72 246.339 106.72Z" fill="#263238"/>
<path d="M229.419 118.64C229.419 118.81 226.339 118.73 222.629 119.4C218.919 120.05 216.059 121.19 215.999 121.03C215.969 120.96 216.649 120.59 217.819 120.15C218.989 119.7 220.649 119.2 222.529 118.86C224.409 118.53 226.149 118.43 227.399 118.45C228.659 118.46 229.419 118.57 229.419 118.64Z" fill="#263238"/>
<path d="M273.57 118.62C273.55 118.7 272.62 118.58 271.12 118.39C269.62 118.2 267.54 117.97 265.24 117.8C262.94 117.64 260.85 117.58 259.33 117.56C257.82 117.53 256.87 117.52 256.87 117.44C256.87 117.37 257.8 117.24 259.32 117.16C260.84 117.08 262.95 117.08 265.27 117.24C267.59 117.4 269.68 117.71 271.18 117.99C272.67 118.29 273.58 118.55 273.57 118.62Z" fill="#263238"/>
<path d="M273.869 174.7C273.869 174.72 273.669 174.72 273.289 174.7C272.849 174.67 272.299 174.63 271.639 174.58C270.129 174.46 268.079 174.31 265.569 174.12C260.449 173.76 253.359 173.41 245.529 173.42C237.689 173.43 230.609 173.79 225.479 174.17C222.979 174.37 220.929 174.53 219.419 174.65C218.759 174.7 218.209 174.74 217.769 174.77C217.389 174.79 217.189 174.8 217.189 174.78C217.189 174.76 217.379 174.72 217.759 174.66C218.199 174.6 218.739 174.52 219.399 174.43C220.829 174.24 222.889 174.01 225.449 173.78C230.569 173.31 237.669 172.88 245.529 172.87C253.379 172.87 260.479 173.28 265.599 173.74C268.159 173.97 270.229 174.19 271.659 174.38C272.319 174.47 272.859 174.55 273.299 174.61C273.679 174.64 273.869 174.68 273.869 174.7Z" fill="#263238"/>
<path d="M230.87 132.69C230.87 132.77 230.53 132.8 230.3 133.19C230.19 133.37 230.11 133.64 230.19 133.87C230.26 134.1 230.5 134.27 230.81 134.3C231.12 134.32 231.39 134.19 231.49 133.97C231.6 133.76 231.57 133.48 231.49 133.28C231.32 132.86 230.98 132.77 231 132.69C230.97 132.62 231.46 132.55 231.83 133.09C231.99 133.34 232.12 133.74 231.95 134.18C231.78 134.63 231.25 134.9 230.76 134.85C230.27 134.82 229.78 134.47 229.69 134C229.59 133.54 229.78 133.17 229.98 132.94C230.44 132.47 230.91 132.62 230.87 132.69Z" fill="#263238"/>
<path d="M242.77 139.1C242.77 139.18 242.43 139.21 242.2 139.6C242.09 139.78 242.01 140.05 242.09 140.28C242.16 140.51 242.4 140.68 242.71 140.71C243.02 140.73 243.29 140.6 243.39 140.38C243.5 140.17 243.47 139.89 243.39 139.69C243.22 139.27 242.88 139.18 242.9 139.1C242.87 139.03 243.36 138.96 243.73 139.5C243.89 139.75 244.02 140.15 243.85 140.59C243.68 141.04 243.15 141.31 242.66 141.26C242.17 141.23 241.68 140.88 241.59 140.41C241.49 139.95 241.68 139.58 241.88 139.35C242.34 138.89 242.81 139.04 242.77 139.1Z" fill="#263238"/>
<path d="M255.899 133.63C255.899 133.71 255.559 133.74 255.329 134.13C255.219 134.31 255.139 134.58 255.219 134.81C255.289 135.04 255.529 135.21 255.839 135.24C256.149 135.26 256.419 135.13 256.519 134.91C256.629 134.7 256.599 134.42 256.519 134.22C256.349 133.8 256.009 133.71 256.029 133.63C255.999 133.56 256.489 133.49 256.859 134.03C257.019 134.28 257.149 134.68 256.979 135.12C256.809 135.57 256.279 135.84 255.789 135.79C255.299 135.76 254.809 135.41 254.719 134.94C254.619 134.48 254.809 134.11 255.009 133.88C255.469 133.42 255.939 133.57 255.899 133.63Z" fill="#263238"/>
<path d="M260.169 123.82C260.169 123.9 259.829 123.93 259.599 124.32C259.489 124.5 259.409 124.77 259.489 125C259.559 125.23 259.799 125.4 260.109 125.43C260.419 125.45 260.689 125.32 260.789 125.1C260.899 124.89 260.869 124.61 260.789 124.41C260.619 123.99 260.279 123.9 260.299 123.82C260.269 123.75 260.759 123.68 261.129 124.22C261.289 124.47 261.419 124.87 261.249 125.31C261.079 125.76 260.549 126.03 260.059 125.98C259.569 125.95 259.079 125.6 258.989 125.13C258.889 124.67 259.079 124.3 259.279 124.07C259.729 123.61 260.199 123.76 260.169 123.82Z" fill="#263238"/>
<path d="M226.53 122.87C226.53 122.95 226.19 122.98 225.96 123.37C225.85 123.55 225.77 123.82 225.85 124.05C225.92 124.28 226.16 124.45 226.47 124.48C226.78 124.5 227.05 124.37 227.15 124.15C227.26 123.94 227.23 123.66 227.15 123.46C226.98 123.04 226.64 122.95 226.66 122.87C226.63 122.8 227.12 122.73 227.49 123.27C227.65 123.52 227.78 123.92 227.61 124.36C227.44 124.81 226.91 125.08 226.42 125.03C225.93 125 225.44 124.65 225.35 124.18C225.25 123.72 225.44 123.35 225.64 123.12C226.1 122.66 226.57 122.81 226.53 122.87Z" fill="#263238"/>
<path d="M255.88 109.41C255.88 109.33 256.22 109.3 256.45 108.91C256.56 108.73 256.64 108.46 256.56 108.23C256.49 108 256.25 107.83 255.94 107.8C255.63 107.78 255.36 107.91 255.26 108.13C255.15 108.34 255.18 108.62 255.26 108.82C255.43 109.24 255.77 109.33 255.75 109.41C255.78 109.48 255.29 109.55 254.92 109.01C254.76 108.76 254.63 108.36 254.8 107.92C254.97 107.47 255.5 107.2 255.99 107.25C256.48 107.28 256.97 107.63 257.06 108.1C257.16 108.56 256.97 108.93 256.77 109.16C256.31 109.63 255.84 109.47 255.88 109.41Z" fill="#263238"/>
<path d="M242.75 103.59C242.75 103.51 243.09 103.48 243.32 103.09C243.43 102.91 243.51 102.64 243.43 102.41C243.36 102.18 243.12 102.01 242.81 101.98C242.5 101.96 242.23 102.09 242.13 102.31C242.02 102.52 242.05 102.8 242.13 103C242.3 103.42 242.64 103.51 242.62 103.59C242.65 103.66 242.16 103.73 241.79 103.19C241.63 102.94 241.5 102.54 241.67 102.1C241.84 101.65 242.37 101.38 242.86 101.43C243.35 101.46 243.84 101.81 243.93 102.28C244.03 102.74 243.84 103.11 243.64 103.34C243.18 103.81 242.71 103.66 242.75 103.59Z" fill="#263238"/>
<path d="M229.77 109.41C229.77 109.33 230.11 109.3 230.34 108.91C230.45 108.73 230.53 108.46 230.45 108.23C230.38 108 230.14 107.83 229.83 107.8C229.52 107.78 229.25 107.91 229.15 108.13C229.04 108.34 229.07 108.62 229.15 108.82C229.32 109.24 229.66 109.33 229.64 109.41C229.67 109.48 229.18 109.55 228.81 109.01C228.65 108.76 228.52 108.36 228.69 107.92C228.86 107.47 229.39 107.2 229.88 107.25C230.37 107.28 230.86 107.63 230.95 108.1C231.05 108.56 230.86 108.93 230.66 109.16C230.2 109.63 229.73 109.47 229.77 109.41Z" fill="#263238"/>
<path d="M241.09 157.63L242.26 216.14C242.29 217.84 243.69 219.18 245.39 219.16C247.06 219.13 248.4 217.79 248.42 216.13C248.54 205.59 248.92 170.09 248.99 157.56C249 155.14 246.86 153.3 244.47 153.66C242.49 153.94 241.05 155.65 241.09 157.63Z" fill="#FF5F00"/>
<g opacity="0.3">
<path d="M241.09 157.63L242.26 216.14C242.29 217.84 243.69 219.18 245.39 219.16C247.06 219.13 248.4 217.79 248.42 216.13C248.54 205.59 248.92 170.09 248.99 157.56C249 155.14 246.86 153.3 244.47 153.66C242.49 153.94 241.05 155.65 241.09 157.63Z" fill="black"/>
</g>
<path d="M242.9 50.6001C243.08 50.8001 241.13 52.6801 238.31 55.9801C236.89 57.6201 235.3 59.6601 233.64 61.9901C232.01 64.3401 230.32 67.0001 228.75 69.9001C227.2 72.8101 225.91 75.6901 224.85 78.3501C223.82 81.0201 223 83.4701 222.42 85.5601C221.23 89.7301 220.73 92.4001 220.46 92.3601C220.27 92.3401 220.35 89.6001 221.27 85.2701C221.72 83.1101 222.44 80.5701 223.41 77.8101C224.41 75.0601 225.69 72.1001 227.28 69.1101C228.89 66.1401 230.66 63.4401 232.4 61.0901C234.17 58.7601 235.89 56.7601 237.45 55.1901C240.53 52.0301 242.77 50.4501 242.9 50.6001Z" fill="white"/>
<path d="M215.77 159.43C215.93 159.68 213.16 161.48 209.31 165.05C208.83 165.5 208.33 165.98 207.82 166.47C207.3 166.97 206.82 167.53 206.28 168.09C205.19 169.19 204.17 170.48 203.06 171.81C200.93 174.55 198.79 177.71 196.91 181.23C195.06 184.78 193.66 188.33 192.59 191.63C192.12 193.3 191.62 194.87 191.33 196.39C191.17 197.14 190.98 197.87 190.86 198.57C190.75 199.28 190.63 199.96 190.53 200.61C189.75 205.81 189.82 209.11 189.53 209.12C189.41 209.12 189.3 208.31 189.2 206.81C189.18 206.43 189.15 206.01 189.13 205.56C189.12 205.1 189.14 204.61 189.15 204.08C189.19 203.02 189.18 201.8 189.36 200.47C189.43 199.8 189.51 199.1 189.59 198.37C189.68 197.64 189.84 196.9 189.98 196.12C190.22 194.55 190.68 192.92 191.12 191.2C192.13 187.79 193.53 184.11 195.43 180.46C197.37 176.83 199.62 173.6 201.87 170.85C203.04 169.51 204.13 168.22 205.29 167.13C205.86 166.58 206.38 166.02 206.93 165.54C207.49 165.06 208.02 164.61 208.53 164.17C209.53 163.27 210.54 162.59 211.4 161.96C211.83 161.65 212.23 161.35 212.61 161.11C213 160.88 213.35 160.67 213.68 160.47C214.97 159.7 215.7 159.33 215.77 159.43Z" fill="white"/>
<path d="M172.73 350.21C170.08 348.69 168.54 345.44 169.03 342.42C169.53 339.4 172.03 336.82 175.03 336.23C177.77 335.69 181.19 336.47 182.92 334.27C184.49 332.28 183.3 329.63 183.99 326.42C184.66 323.3 187.43 321.71 190.46 321.76C193.49 321.8 196.3 323.77 197.82 326.4C199.33 329.03 200.29 333.08 199.94 336.09C199.13 343 195.44 346.55 190.85 349.48C186.27 352.41 177.57 353.08 172.73 350.21Z" fill="#E8505B"/>
<g opacity="0.8">
<path d="M172.73 350.21C170.08 348.69 168.54 345.44 169.03 342.42C169.53 339.4 172.03 336.82 175.03 336.23C177.77 335.69 181.19 336.47 182.92 334.27C184.49 332.28 183.3 329.63 183.99 326.42C184.66 323.3 187.43 321.71 190.46 321.76C193.49 321.8 196.3 323.77 197.82 326.4C199.33 329.03 200.29 333.08 199.94 336.09C199.13 343 195.44 346.55 190.85 349.48C186.27 352.41 177.57 353.08 172.73 350.21Z" fill="#FF5F00"/>
</g>
<path d="M284.92 294.82C287.13 290.59 292.11 287.99 296.85 288.58C301.59 289.17 305.77 292.92 306.87 297.57C307.88 301.81 306.87 307.2 310.4 309.77C313.6 312.1 317.66 310.09 322.71 310.98C327.62 311.84 330.26 316.06 330.38 320.8C330.49 325.54 327.59 330.04 323.58 332.56C319.57 335.08 313.31 336.82 308.58 336.44C297.74 335.59 292 330.04 287.15 323.06C282.3 316.07 280.73 302.54 284.92 294.82Z" fill="#E8505B"/>
<g opacity="0.8">
<path d="M284.92 294.82C287.13 290.59 292.11 287.99 296.85 288.58C301.59 289.17 305.77 292.92 306.87 297.57C307.88 301.81 306.87 307.2 310.4 309.77C313.6 312.1 317.66 310.09 322.71 310.98C327.62 311.84 330.26 316.06 330.38 320.8C330.49 325.54 327.59 330.04 323.58 332.56C319.57 335.08 313.31 336.82 308.58 336.44C297.74 335.59 292 330.04 287.15 323.06C282.3 316.07 280.73 302.54 284.92 294.82Z" fill="#FF5F00"/>
</g>
<path d="M204.11 280.64C202.26 281.45 200.05 284.17 200.16 287.2C200.31 291.19 204.45 294.53 208.38 293.84C212.31 293.15 215.05 288.59 213.83 284.79C212.59 280.99 207.7 278.9 204.11 280.64Z" fill="#E8505B"/>
<g opacity="0.8">
<path d="M204.11 280.64C202.26 281.45 200.05 284.17 200.16 287.2C200.31 291.19 204.45 294.53 208.38 293.84C212.31 293.15 215.05 288.59 213.83 284.79C212.59 280.99 207.7 278.9 204.11 280.64Z" fill="#FF5F00"/>
</g>
<path d="M310.43 364.5C309.5 364.91 308.4 366.26 308.45 367.78C308.52 369.77 310.59 371.45 312.56 371.1C314.52 370.75 315.9 368.47 315.28 366.58C314.67 364.68 312.23 363.63 310.43 364.5Z" fill="#E8505B"/>
<g opacity="0.8">
<path d="M310.43 364.5C309.5 364.91 308.4 366.26 308.45 367.78C308.52 369.77 310.59 371.45 312.56 371.1C314.52 370.75 315.9 368.47 315.28 366.58C314.67 364.68 312.23 363.63 310.43 364.5Z" fill="white"/>
</g>
<path d="M405.18 458.75L417 462.9L416.87 474.27C411.21 475.87 410.42 478.73 410.42 478.73L422.25 478.46L432.54 457.54L424.4 452.21L409.18 445.55" fill="#FF5F00"/>
<g opacity="0.6">
<path d="M432.54 457.52L422.25 478.45L410.42 478.72L411.71 476.91L421.32 476.16L430.81 456.39L432.54 457.52Z" fill="white"/>
</g>
<path d="M416.83 469.06C416.92 469.18 417.59 468.78 418.51 468.78C419.43 468.76 420.1 469.15 420.19 469.03C420.3 468.94 419.62 468.24 418.5 468.26C417.39 468.26 416.72 468.97 416.83 469.06Z" fill="#191919"/>
<path d="M416.96 466.24C417.08 466.32 417.59 465.61 418.53 465.41C419.47 465.2 420.23 465.62 420.31 465.49C420.35 465.44 420.21 465.24 419.87 465.07C419.54 464.9 419 464.77 418.42 464.9C417.84 465.03 417.4 465.37 417.18 465.67C416.94 465.97 416.9 466.2 416.96 466.24Z" fill="#191919"/>
<path d="M416.8 462.62C416.93 462.68 417.32 461.99 418.14 461.69C418.95 461.38 419.7 461.64 419.76 461.51C419.79 461.45 419.64 461.29 419.31 461.17C418.99 461.05 418.47 461.01 417.96 461.21C417.45 461.4 417.09 461.78 416.92 462.08C416.75 462.37 416.74 462.6 416.8 462.62Z" fill="#191919"/>
<path d="M415.93 462.61C416.07 462.57 415.99 461.83 416.34 461.03C416.67 460.22 417.27 459.77 417.2 459.64C417.16 459.5 416.28 459.84 415.86 460.83C415.44 461.81 415.8 462.68 415.93 462.61Z" fill="#191919"/>
<path d="M414.53 461.28C414.6 461.28 414.7 460.68 414.81 459.69C414.86 459.12 414.91 458.55 414.97 457.96C414.98 457.63 415.07 457.31 414.97 456.86C414.91 456.64 414.78 456.41 414.55 456.27C414.32 456.11 413.95 456.14 413.75 456.3C413.34 456.62 413.22 457 413.08 457.35C412.95 457.71 412.89 458.07 412.87 458.42C412.83 459.12 412.98 459.73 413.18 460.21C413.6 461.17 414.19 461.52 414.22 461.48C414.29 461.42 413.82 460.99 413.53 460.08C413.39 459.63 413.29 459.07 413.35 458.46C413.38 458.15 413.45 457.84 413.56 457.53C413.68 457.23 413.85 456.88 414.05 456.74C414.15 456.68 414.21 456.68 414.3 456.72C414.39 456.77 414.46 456.87 414.49 456.99C414.56 457.24 414.51 457.61 414.5 457.93C414.48 458.52 414.47 459.1 414.45 459.67C414.43 460.66 414.46 461.28 414.53 461.28Z" fill="#191919"/>
<path d="M414.34 461.8C414.39 461.77 414.04 461.25 413.13 460.95C412.25 460.68 410.71 460.73 409.77 462.15C409.72 462.28 409.73 462.47 409.82 462.61C409.91 462.75 410.03 462.82 410.13 462.86C410.34 462.95 410.52 462.95 410.68 462.97C411.01 463 411.34 463 411.64 462.97C412.25 462.91 412.79 462.76 413.21 462.57C414.06 462.2 414.45 461.77 414.41 461.72C414.36 461.65 413.9 461.96 413.08 462.22C412.67 462.35 412.17 462.46 411.61 462.48C411.33 462.49 411.04 462.49 410.73 462.45C410.58 462.43 410.42 462.42 410.33 462.37C410.23 462.31 410.26 462.33 410.26 462.29C410.27 462.23 410.38 462.11 410.49 462.01C410.6 461.91 410.72 461.81 410.84 461.73C411.08 461.57 411.34 461.44 411.6 461.36C412.12 461.19 412.62 461.21 413.03 461.28C413.86 461.48 414.29 461.86 414.34 461.8Z" fill="#191919"/>
<g opacity="0.6">
<path d="M423.1 457.38C423.12 458.15 423.76 458.77 424.53 458.75C425.3 458.73 425.92 458.09 425.9 457.32C425.88 456.55 425.24 455.93 424.47 455.95C423.69 455.96 423.08 456.6 423.1 457.38Z" fill="white"/>
</g>
<path d="M344.54 454L344.7 469.48C344.7 469.48 329.01 474.84 328.77 477.71L358.8 478.48L359.54 454.34L344.54 454Z" fill="#FF5F00"/>
<g opacity="0.6">
<path d="M354.02 468.42C354.6 468.59 354.98 469.26 354.83 469.84C354.68 470.42 354.01 470.82 353.43 470.66C352.85 470.5 352.36 469.71 352.58 469.15C352.79 468.59 353.61 468.16 354.13 468.46" fill="white"/>
</g>
<g opacity="0.6">
<path d="M358.8 478.48L358.78 476.04L329.99 476.22C329.99 476.22 328.64 476.77 328.77 477.71L358.8 478.48Z" fill="white"/>
</g>
<path d="M344.21 469.32C344.21 469.47 344.94 469.55 345.65 470.04C346.37 470.51 346.73 471.16 346.86 471.1C347 471.07 346.8 470.19 345.93 469.61C345.08 469.03 344.18 469.18 344.21 469.32Z" fill="#191919"/>
<path d="M341.03 470.54C340.99 470.68 341.62 470.95 342.1 471.58C342.6 472.2 342.71 472.87 342.86 472.87C343 472.9 343.12 472.04 342.51 471.26C341.9 470.48 341.04 470.4 341.03 470.54Z" fill="#191919"/>
<path d="M339.14 474.26C339.27 474.29 339.5 473.57 339.14 472.75C338.79 471.93 338.11 471.6 338.04 471.72C337.95 471.84 338.39 472.28 338.67 472.95C338.97 473.63 339 474.25 339.14 474.26Z" fill="#191919"/>
<path d="M344.57 465.78C344.63 465.92 345.31 465.73 346.13 465.81C346.96 465.87 347.6 466.17 347.68 466.04C347.77 465.94 347.15 465.38 346.18 465.3C345.2 465.22 344.5 465.67 344.57 465.78Z" fill="#191919"/>
<g opacity="0.3">
<path d="M344.569 457.06L344.599 459.82L359.359 460.07L359.439 457.58L344.569 457.06Z" fill="black"/>
</g>
<path d="M344.589 462.66C344.589 462.72 345.159 462.83 346.089 462.69C346.549 462.62 347.099 462.49 347.679 462.25C347.969 462.13 348.259 461.99 348.559 461.81C348.699 461.72 348.869 461.64 349.019 461.47C349.189 461.32 349.289 460.93 349.109 460.69C348.959 460.46 348.689 460.35 348.479 460.34C348.259 460.33 348.079 460.37 347.909 460.4C347.569 460.47 347.259 460.58 346.969 460.7C346.389 460.95 345.909 461.26 345.559 461.57C344.849 462.2 344.589 462.74 344.639 462.77C344.709 462.82 345.059 462.37 345.779 461.85C346.139 461.59 346.599 461.33 347.139 461.13C347.409 461.03 347.699 460.95 348.009 460.89C348.329 460.81 348.599 460.82 348.679 460.96C348.709 461.01 348.709 461.04 348.639 461.13C348.569 461.21 348.439 461.29 348.299 461.38C348.029 461.55 347.759 461.69 347.489 461.81C346.959 462.06 346.449 462.22 346.019 462.33C345.159 462.55 344.589 462.58 344.589 462.66Z" fill="#191919"/>
<path d="M344.78 462.88C344.83 462.9 345.14 462.39 345.21 461.44C345.25 460.97 345.21 460.4 345.05 459.79C344.97 459.49 344.85 459.17 344.69 458.87C344.52 458.57 344.32 458.17 343.75 458.09C343.45 458.07 343.2 458.3 343.11 458.49C343.01 458.69 342.98 458.86 342.94 459.04C342.88 459.39 342.87 459.73 342.91 460.05C342.99 460.69 343.24 461.23 343.51 461.62C344.08 462.41 344.68 462.6 344.7 462.55C344.75 462.48 344.25 462.18 343.82 461.42C343.61 461.05 343.42 460.55 343.38 459.99C343.36 459.71 343.37 459.42 343.43 459.12C343.49 458.8 343.61 458.55 343.73 458.58C343.88 458.58 344.13 458.83 344.24 459.09C344.39 459.36 344.5 459.64 344.59 459.91C344.76 460.46 344.83 460.98 344.84 461.42C344.87 462.31 344.7 462.85 344.78 462.88Z" fill="#191919"/>
<path d="M414.35 446.11L379.77 433.25L416.13 428.14L417.96 410.43L349.97 416.36L340.37 430.19L342.9 447.53L409.14 464.37L414.35 446.11Z" fill="#F4F4F4"/>
<path d="M341.02 458.5L337.71 395.2C337.89 389.03 341.25 383.4 346.59 380.31C351 377.75 356.3 377.21 361.14 378.83L405.25 393.54L429.46 399.76C429.46 399.76 433.58 409.93 431.16 417.84C428.79 425.58 420.31 430.72 412.85 428.51C403.58 425.76 361.04 407.47 361.04 407.47V459.01L341.02 458.5Z" fill="#F4F4F4"/>
<path d="M412.21 428.68C412.21 428.69 412.12 428.66 411.95 428.59C411.76 428.52 411.51 428.42 411.19 428.3C410.51 428.03 409.54 427.64 408.3 427.14C405.77 426.11 402.15 424.63 397.69 422.81C388.73 419.11 376.38 414.02 362.74 408.39C362.13 408.14 361.52 407.89 360.96 407.65L361.24 407.46C361.22 421.78 361.19 434.66 361.18 443.98C361.15 448.61 361.13 452.36 361.12 454.98C361.1 456.26 361.09 457.26 361.08 457.96C361.07 458.28 361.07 458.54 361.06 458.74C361.05 458.91 361.05 459 361.04 459C361.03 459 361.03 458.91 361.02 458.74C361.02 458.54 361.01 458.29 361 457.96C360.99 457.25 360.98 456.25 360.96 454.98C360.94 452.36 360.92 448.61 360.9 443.98C360.88 434.66 360.86 421.78 360.84 407.46V407.15L361.12 407.27C361.68 407.5 362.29 407.75 362.9 408.01C376.52 413.68 388.85 418.81 397.8 422.54C402.24 424.41 405.84 425.93 408.36 426.99C409.59 427.52 410.55 427.93 411.22 428.22C411.53 428.36 411.77 428.47 411.96 428.55C412.13 428.64 412.21 428.68 412.21 428.68Z" fill="#7B7B7B"/>
<path d="M371.47 428.76C371.48 428.66 373.65 429.05 376 430.36C378.36 431.66 379.84 433.29 379.76 433.35C379.67 433.44 378.1 431.98 375.8 430.72C373.51 429.43 371.43 428.88 371.47 428.76Z" fill="#7B7B7B"/>
<path d="M357.2 398.91C357.29 398.86 358.43 400.73 359.53 403.19C360.64 405.65 361.28 407.74 361.18 407.78C361.07 407.82 360.26 405.8 359.16 403.36C358.07 400.92 357.1 398.97 357.2 398.91Z" fill="#7B7B7B"/>
<path d="M357.3 371.02L349.5 369.56L341.31 377.92L342.82 383.25L352.37 379.73L357.3 371.02Z" fill="#A36140"/>
<path d="M285.23 351.94L294.11 349.97L308.39 352.21L307.84 361.32C307.84 361.32 303.41 361.96 301.82 361.44C300.22 360.92 298.9 361.37 298.9 361.37C298.9 361.37 299.77 363.16 298.27 363.46C296.77 363.75 294.32 364.38 293.86 362.25C293.86 362.25 292.72 362.42 292.19 361.03C292.19 361.03 291.03 361.45 290.51 359.42C289.99 357.39 290.28 354.34 294.3 353.37C294.51 353.32 294.6 352.84 294.21 352.86L287.86 354.05C287.85 354.05 283.62 354.21 285.23 351.94Z" fill="#A36140"/>
<path d="M292.78 358.29C292.78 358.24 293.35 358.14 294.29 358.02C294.77 357.98 295.29 357.86 295.97 357.87C296.3 357.89 296.7 358.01 296.96 358.34C297.24 358.69 297.21 359.19 297.02 359.55C296.6 360.32 295.78 360.5 295.21 360.66C294.6 360.83 294.05 360.95 293.57 361.02C292.62 361.16 292.03 361.11 292.03 361.07C292.03 361.01 292.61 360.96 293.52 360.76C293.98 360.66 294.52 360.52 295.11 360.33C295.41 360.23 295.73 360.15 296 360.01C296.28 359.87 296.55 359.65 296.68 359.38C296.82 359.1 296.83 358.78 296.66 358.57C296.5 358.35 296.21 358.24 295.93 358.22C295.36 358.19 294.77 358.28 294.3 358.29C293.37 358.34 292.78 358.34 292.78 358.29Z" fill="#A46240"/>
<path d="M294.3 356.33C294.33 356.43 293.85 356.66 293.51 357.19C293.15 357.71 293.12 358.25 293.02 358.25C292.92 358.28 292.77 357.62 293.2 356.97C293.63 356.33 294.3 356.23 294.3 356.33Z" fill="#7E5B48"/>
<path d="M296.74 359.58C296.75 359.56 296.83 359.55 296.98 359.61C297.15 359.66 297.28 359.9 297.4 360.09C297.55 360.32 297.66 360.69 297.55 361.08C297.45 361.5 297.01 361.77 296.63 361.87C295.88 362.07 295.2 362.25 294.69 362.3C294.18 362.35 293.86 362.3 293.86 362.25C293.86 362.19 294.17 362.15 294.65 362.03C295.13 361.92 295.79 361.7 296.53 361.5C296.88 361.4 297.15 361.23 297.23 360.97C297.32 360.71 297.27 360.43 297.18 360.22C297.07 359.97 297.02 359.81 296.92 359.73C296.8 359.65 296.72 359.6 296.74 359.58Z" fill="#7E5B48"/>
<path d="M297.33 361.13C297.31 361.09 297.43 360.95 297.71 360.91C297.99 360.87 298.36 360.97 298.7 361.18C299.1 361.44 299.19 361.87 299.21 362.12C299.23 362.38 299.18 362.54 299.13 362.54C299.08 362.54 299.03 362.39 298.95 362.17C298.87 361.95 298.75 361.66 298.51 361.51C298.21 361.33 297.93 361.22 297.72 361.19C297.5 361.14 297.36 361.18 297.33 361.13Z" fill="#7E5B48"/>
<path d="M301.75 354.05L297.74 355.64L293.96 358.3C293.96 358.3 293.95 359.21 296.09 358.88C298.23 358.55 299.85 357.42 299.85 357.42C299.85 357.42 302.65 359.18 305.12 358.78" fill="#A36140"/>
<path d="M305.11 358.77C305.11 358.79 304.98 358.82 304.72 358.87C304.46 358.91 304.07 358.93 303.58 358.88C302.6 358.79 301.23 358.4 299.76 357.56H299.94C298.7 358.36 297.09 359.08 295.22 359.15C294.94 359.15 294.66 359.13 294.39 359.02C294.12 358.91 293.81 358.72 293.77 358.3L293.76 358.21L293.85 358.15C295.25 357.18 296.53 356.29 297.65 355.52L297.67 355.51L297.69 355.5C298.92 355.03 299.93 354.66 300.63 354.4C301.34 354.15 301.74 354.02 301.75 354.05C301.76 354.08 301.38 354.26 300.69 354.56C300 354.86 299.01 355.28 297.8 355.78L297.83 355.76C296.73 356.55 295.45 357.46 294.07 358.45L294.15 358.3C294.16 358.41 294.32 358.59 294.53 358.65C294.74 358.73 294.99 358.75 295.24 358.75C296.97 358.69 298.58 358.01 299.77 357.27L299.86 357.21L299.95 357.26C301.34 358.1 302.68 358.53 303.62 358.67C304.55 358.84 305.11 358.72 305.11 358.77Z" fill="#7E5B48"/>
<path d="M295.93 353.85C295.91 353.95 295.46 353.95 295 353.66C294.53 353.38 294.32 352.97 294.4 352.91C294.48 352.84 294.79 353.09 295.2 353.33C295.59 353.59 295.95 353.75 295.93 353.85Z" fill="#7E5B48"/>
<path d="M307.61 363.69L341.47 368.6C344.83 369.67 348.48 369.36 351.62 367.75L381.77 352.28L372.74 332.37C371.46 332.84 369.98 333.42 369.34 333.8L344.53 351.68L308.49 350.42L307.61 363.69Z" fill="#FF5F00"/>
<path d="M428.79 399.62L426.63 395.83L403.55 390.05L406.27 394.75L428.79 399.62Z" fill="#FFBE9D"/>
<path d="M372.75 332.38C372.78 333.19 369.36 358.24 369.36 363.36C369.36 368.48 379.16 374.03 379.16 374.03L389.89 396.82H428.11L415.04 372.28L409.13 352.63C406.89 345.18 407.12 341.34 401.58 335.88L390.89 328.69L372.75 332.38Z" fill="#FF5F00"/>
<path d="M383.85 352.16L390.27 379.1L357.89 369.98L352.37 379.73L394.5 398.92C399.69 401.28 405.83 399.61 409.1 394.95C411.09 392.12 411.74 388.56 410.88 385.21L401.45 348.35C400.15 343.28 394.82 340.38 389.85 342.04C385.62 343.46 383.07 347.77 383.85 352.16Z" fill="#FF5F00"/>
<path d="M379.76 375.3C379.75 375.31 379.03 373.98 378.79 373.87C378.55 373.75 378.21 373.57 377.77 373.32C376.9 372.82 375.65 372.07 374.22 370.97C372.83 369.85 371.14 368.41 370.04 366.22C369 363.98 369.08 361.22 369.45 358.52C369.84 355.79 370.4 353.26 370.73 350.91C371.09 348.57 371.34 346.45 371.47 344.67C371.61 342.89 371.63 341.44 371.62 340.44C371.62 339.44 371.59 338.88 371.62 338.88C371.63 338.88 371.66 339.02 371.69 339.28C371.72 339.54 371.75 339.93 371.78 340.43C371.83 341.43 371.86 342.89 371.75 344.69C371.66 346.49 371.44 348.62 371.1 350.97C370.79 353.32 370.24 355.89 369.85 358.58C369.47 361.26 369.41 363.93 370.37 366.06C371.39 368.15 373.03 369.61 374.39 370.74C375.78 371.86 377 372.65 377.84 373.18C378.7 373.72 379.78 375.27 379.76 375.3Z" fill="#191919"/>
<path d="M392.64 330.48C392.66 330.5 392.45 330.73 392.06 331.13C391.67 331.53 391.08 332.1 390.35 332.78C388.88 334.15 386.79 335.99 384.4 337.91C382 339.83 379.75 341.47 378.09 342.6C377.26 343.17 376.58 343.62 376.1 343.91C375.62 344.21 375.35 344.36 375.34 344.34C375.32 344.32 375.57 344.12 376.01 343.78C376.53 343.39 377.17 342.92 377.92 342.36C379.53 341.17 381.75 339.5 384.14 337.58C386.53 335.66 388.64 333.87 390.16 332.55C390.87 331.94 391.47 331.42 391.96 330.99C392.37 330.65 392.62 330.46 392.64 330.48Z" fill="#191919"/>
<path d="M383.85 352.16C383.86 352.16 383.92 352.33 384.01 352.67C384.11 353.04 384.24 353.54 384.4 354.17C384.74 355.52 385.21 357.42 385.8 359.79C386.97 364.62 388.6 371.33 390.46 379.05L390.54 379.38L390.21 379.29C387.59 378.55 384.81 377.77 381.95 376.97C372.59 374.31 364.1 371.9 357.84 370.12L358.01 370.05C356.29 373.03 354.9 375.44 353.91 377.15C353.43 377.96 353.05 378.6 352.78 379.07C352.66 379.27 352.56 379.43 352.48 379.56C352.41 379.67 352.37 379.72 352.36 379.72C352.35 379.72 352.38 379.65 352.44 379.54C352.51 379.4 352.6 379.23 352.71 379.03C352.97 378.55 353.33 377.9 353.77 377.07C354.73 375.35 356.08 372.9 357.75 369.9L357.81 369.8L357.92 369.83C364.18 371.58 372.69 373.95 382.06 376.57C384.92 377.38 387.69 378.16 390.31 378.9L390.06 379.14C388.25 371.42 386.67 364.69 385.54 359.85C385 357.47 384.56 355.56 384.25 354.2C384.11 353.56 384 353.06 383.92 352.68C383.87 352.35 383.84 352.16 383.85 352.16Z" fill="#191919"/>
<path d="M401.59 350.48C401.6 350.48 401.66 350.64 401.75 350.94C401.85 351.29 401.97 351.74 402.12 352.28C402.44 353.5 402.88 355.19 403.42 357.24C404.49 361.49 405.96 367.27 407.57 373.66C408.36 376.87 409.14 379.92 409.79 382.72C410.44 385.52 410.72 388.15 410.41 390.32C410.12 392.5 409.32 394.14 408.6 395.13C407.89 396.13 407.31 396.51 407.31 396.51C407.27 396.48 407.81 396.05 408.47 395.04C409.13 394.05 409.87 392.42 410.12 390.29C410.39 388.16 410.09 385.58 409.42 382.81C408.73 380.03 407.97 376.97 407.17 373.77C405.6 367.37 404.18 361.58 403.13 357.33C402.64 355.26 402.24 353.57 401.95 352.33C401.83 351.77 401.73 351.32 401.65 350.97C401.61 350.65 401.58 350.49 401.59 350.48Z" fill="#191919"/>
<g opacity="0.3">
<path d="M407.47 396.82C412.21 397.26 414.96 394.55 415.47 390.85C415.75 388.81 415.08 386.78 414.41 384.83C411.5 376.31 408.57 367.72 403.95 359.98C405.69 367.72 407.91 375.15 409.66 382.88C410.23 385.41 410.44 386.88 410.4 389.47C410.35 392.07 409.19 394.88 407.47 396.82Z" fill="black"/>
</g>
<path d="M368.6 358.04C368.56 358.08 367.77 357.32 366.69 355.93C365.61 354.54 364.27 352.49 363.14 350.04C362.01 347.59 361.32 345.24 360.97 343.51C360.62 341.78 360.55 340.69 360.61 340.69C360.69 340.68 360.89 341.74 361.33 343.43C361.77 345.12 362.5 347.41 363.61 349.82C364.72 352.23 365.99 354.28 366.99 355.71C367.97 357.14 368.66 357.99 368.6 358.04Z" fill="#FAFAFA"/>
<path d="M359.32 363.53C359.26 363.57 358.67 362.74 357.8 361.36C356.93 359.98 355.77 358.04 354.58 355.85C353.39 353.66 352.38 351.64 351.7 350.16C351.01 348.68 350.64 347.74 350.7 347.71C350.77 347.68 351.26 348.56 352.03 350C352.89 351.59 353.91 353.5 355.04 355.61C356.2 357.7 357.24 359.59 358.12 361.18C358.9 362.6 359.38 363.49 359.32 363.53Z" fill="#FAFAFA"/>
<path d="M346.55 368.51C346.41 368.53 345.71 364.95 344.99 360.51C344.27 356.07 343.8 352.45 343.94 352.43C344.08 352.41 344.78 355.99 345.5 360.43C346.22 364.87 346.7 368.49 346.55 368.51Z" fill="#FAFAFA"/>
<path d="M335.19 367.74C335.12 367.74 335.01 366.87 334.92 365.45C334.83 364.03 334.79 362.07 334.84 359.91C334.89 357.74 335.03 355.79 335.19 354.38C335.34 352.97 335.49 352.1 335.56 352.11C335.63 352.12 335.61 352.99 335.55 354.41C335.49 355.82 335.41 357.77 335.36 359.93C335.31 362.09 335.3 364.04 335.29 365.45C335.29 366.86 335.27 367.74 335.19 367.74Z" fill="#FAFAFA"/>
<path d="M323.82 351.2C323.89 351.2 324.01 352.01 324.11 353.33C324.21 354.65 324.27 356.48 324.24 358.5C324.2 360.52 324.07 362.35 323.93 363.66C323.79 364.98 323.64 365.78 323.57 365.78C323.42 365.76 323.65 362.51 323.72 358.49C323.78 354.47 323.66 351.21 323.82 351.2Z" fill="#FAFAFA"/>
<path d="M314.48 352.4C314.62 352.41 314.49 355.14 314.19 358.5C313.89 361.86 313.53 364.57 313.38 364.55C313.24 364.54 313.37 361.81 313.67 358.45C313.98 355.09 314.34 352.38 314.48 352.4Z" fill="#FAFAFA"/>
<path d="M370.77 343.14C370.62 343.19 370.02 341.53 369 339.63C367.99 337.72 366.96 336.29 367.08 336.2C367.18 336.11 368.43 337.43 369.46 339.39C370.5 341.34 370.9 343.11 370.77 343.14Z" fill="#FAFAFA"/>
<path d="M388.37 370.36C388.37 370.4 388.09 370.43 387.58 370.45C387.07 370.48 386.34 370.47 385.43 370.4C383.62 370.27 381.12 369.83 378.52 368.86C375.92 367.88 373.74 366.57 372.3 365.48C371.57 364.94 371.01 364.46 370.65 364.11C370.28 363.76 370.09 363.55 370.12 363.53C370.18 363.46 371.03 364.19 372.52 365.18C374 366.18 376.16 367.41 378.71 368.37C381.27 369.32 383.7 369.81 385.48 370.03C387.25 370.26 388.37 370.27 388.37 370.36Z" fill="#FAFAFA"/>
<path d="M384.72 357.59C384.71 357.66 383.91 357.6 382.63 357.36C381.36 357.13 379.61 356.7 377.74 356.06C375.87 355.41 374.23 354.67 373.09 354.07C371.94 353.47 371.27 353.02 371.31 352.97C371.38 352.83 374.21 354.3 377.92 355.57C381.62 356.85 384.75 357.44 384.72 357.59Z" fill="#FAFAFA"/>
<path d="M382.6 348.41C382.62 348.53 380.11 348.71 377.3 347.57C374.47 346.46 372.78 344.6 372.88 344.52C372.98 344.39 374.78 346.02 377.49 347.08C380.2 348.18 382.62 348.24 382.6 348.41Z" fill="#FAFAFA"/>
<path d="M397.57 341.87C397.52 341.95 396.74 341.42 395.32 341.02C393.92 340.62 391.8 340.44 389.7 341.22C387.6 342.01 386.11 343.53 385.32 344.75C384.5 345.98 384.26 346.9 384.17 346.87C384.12 346.86 384.24 345.9 385 344.56C385.75 343.24 387.28 341.58 389.51 340.74C391.75 339.91 393.99 340.16 395.42 340.67C396.88 341.18 397.6 341.84 397.57 341.87Z" fill="#FAFAFA"/>
<path d="M399.34 354.15C399.37 354.21 398.74 354.61 397.64 355.1C396.54 355.59 394.96 356.14 393.16 356.5C391.35 356.86 389.68 356.95 388.48 356.92C387.28 356.89 386.54 356.76 386.55 356.7C386.56 356.54 389.51 356.71 393.06 355.99C396.6 355.3 399.27 354 399.34 354.15Z" fill="#FAFAFA"/>
<path d="M404.46 369.56C404.47 369.7 401.33 370.13 397.43 370.51C393.54 370.89 390.37 371.08 390.35 370.94C390.34 370.8 393.48 370.37 397.38 369.99C401.28 369.61 404.45 369.42 404.46 369.56Z" fill="#FAFAFA"/>
<path d="M408.97 390.91C408.96 390.94 408.68 390.89 408.17 390.75C407.66 390.62 406.94 390.38 406.07 390.04C404.32 389.37 402.01 388.19 399.63 386.62C397.25 385.05 395.23 383.44 393.8 382.26C392.37 381.07 391.52 380.3 391.56 380.24C391.61 380.18 392.54 380.86 394.03 381.97C395.52 383.08 397.56 384.63 399.92 386.19C402.28 387.74 404.53 388.95 406.22 389.7C407.9 390.46 408.99 390.83 408.97 390.91Z" fill="#FAFAFA"/>
<path d="M384.73 394.16C384.67 394.16 384.55 393.3 384.57 391.89C384.59 390.48 384.77 388.54 385.28 386.44C385.79 384.35 386.52 382.53 387.15 381.27C387.78 380.01 388.28 379.3 388.33 379.33C388.48 379.41 386.77 382.44 385.79 386.56C384.77 390.69 384.9 394.16 384.73 394.16Z" fill="#FAFAFA"/>
<path d="M372.54 387.63C372.42 387.66 372.14 384.78 373.18 381.45C374.19 378.1 376.03 375.88 376.12 375.97C376.26 376.06 374.66 378.35 373.68 381.6C372.66 384.83 372.7 387.63 372.54 387.63Z" fill="#FAFAFA"/>
<path d="M365.74 371.67C365.86 371.79 363.64 373.8 362.02 377.05C360.36 380.27 360.04 383.26 359.88 383.23C359.82 383.22 359.81 382.47 360.03 381.28C360.24 380.09 360.72 378.47 361.56 376.81C362.4 375.16 363.43 373.82 364.26 372.94C365.09 372.07 365.7 371.63 365.74 371.67Z" fill="#FAFAFA"/>
<path d="M410.66 357.7C410.77 357.78 409.69 359.06 407.82 359.79C405.95 360.54 404.29 360.34 404.31 360.21C404.31 360.05 405.87 360.01 407.62 359.3C409.38 358.63 410.55 357.59 410.66 357.7Z" fill="#FAFAFA"/>
<path d="M406.08 343.67C406.2 343.73 405.57 345.04 404.21 346.15C402.85 347.27 401.44 347.62 401.41 347.5C401.35 347.36 402.61 346.81 403.88 345.75C405.16 344.7 405.95 343.58 406.08 343.67Z" fill="#FAFAFA"/>
<path d="M389.75 334.33C389.84 334.23 390.95 335.1 391.76 336.6C392.59 338.1 392.72 339.5 392.59 339.52C392.44 339.55 392.09 338.27 391.3 336.85C390.54 335.42 389.65 334.43 389.75 334.33Z" fill="#FAFAFA"/>
<path d="M414.02 370.91C414.1 371.02 412.81 371.95 410.94 372.43C409.07 372.92 407.49 372.74 407.51 372.6C407.51 372.45 409.03 372.39 410.81 371.92C412.59 371.47 413.94 370.78 414.02 370.91Z" fill="#FAFAFA"/>
<path d="M421.01 383.22C421.02 383.36 418.59 383.69 415.57 383.94C412.55 384.2 410.1 384.29 410.08 384.14C410.07 384 412.5 383.67 415.52 383.42C418.54 383.16 421 383.07 421.01 383.22Z" fill="#FAFAFA"/>
<path d="M425.86 393.12C425.86 393.26 422.25 393.29 417.81 393.18C413.37 393.07 409.77 392.86 409.77 392.72C409.77 392.58 413.38 392.55 417.82 392.66C422.27 392.77 425.86 392.97 425.86 393.12Z" fill="#FAFAFA"/>
<path d="M390.47 293.88C391.13 297.27 396 298.62 396.48 302.04C396.69 303.51 395.99 304.97 396.04 306.45C396.11 308.44 397.49 310.11 398.2 311.98C399.66 315.82 398.01 320.37 394.93 323.08C391.85 325.79 387.62 326.89 383.51 326.97" fill="black"/>
<path d="M362.89 297.38C363.31 299.19 362.36 301.01 361.36 302.58C360.36 304.15 359.23 305.79 359.25 307.65C359.29 310.94 362.92 313.43 362.77 316.72C362.69 318.48 361.51 320.08 361.53 321.84C361.55 323.55 362.7 325.04 364.01 326.13C365.32 327.23 366.57 326.84 367.77 328.05C369.03 329.33 370.93 330.55 372.62 331.16C376.46 332.54 380.25 329.07 381.88 328.3" fill="#040404"/>
<path d="M391.47 295.73C391.26 294.06 389.52 293.02 387.88 292.66C386.24 292.3 384.48 292.34 382.96 291.63C381.61 291 380.59 289.85 379.39 288.97C376.45 286.8 372.33 286.36 369 287.86C365.67 289.36 363.27 292.74 362.94 296.37C362.72 298.83 363.57 301.56 365.68 302.84C368.13 304.32 371.27 303.41 373.95 302.41C376.63 301.41 379.68 300.35 382.25 301.61C383.8 302.37 384.85 303.84 385.94 305.18C387.03 306.52 388.34 307.86 390.04 308.16C391.74 308.46 393.78 307.16 393.57 305.44" fill="#040404"/>
<path d="M392.05 331.14L388 298.76C387.8 297.31 386.53 296.26 385.08 296.33L369.75 294.9C364.95 295.14 362.71 301.44 363.15 306.23C363.64 311.55 364.44 318.02 365.68 321.85C368.16 329.55 374.38 329.62 374.38 329.62C374.38 329.61 375.54 341 375.99 343.82" fill="#A36140"/>
<path d="M365.26 312.13C365.32 312.67 365.83 313.06 366.4 313C366.96 312.94 367.37 312.46 367.3 311.92C367.24 311.38 366.73 310.99 366.16 311.05C365.6 311.11 365.2 311.59 365.26 312.13Z" fill="#040404"/>
<path d="M364.97 310.13C365.12 310.24 365.8 309.55 366.89 309.39C367.98 309.21 368.86 309.64 368.96 309.49C369.01 309.42 368.84 309.2 368.46 309C368.08 308.8 367.45 308.65 366.78 308.75C366.1 308.86 365.57 309.2 365.28 309.51C364.98 309.83 364.9 310.08 364.97 310.13Z" fill="#040404"/>
<path d="M376.25 310.52C376.31 311.06 376.82 311.45 377.39 311.39C377.95 311.33 378.36 310.85 378.29 310.31C378.23 309.77 377.72 309.38 377.15 309.44C376.59 309.5 376.18 309.99 376.25 310.52Z" fill="#040404"/>
<path d="M375.72 308.67C375.87 308.78 376.55 308.09 377.64 307.93C378.73 307.75 379.61 308.18 379.71 308.03C379.76 307.96 379.59 307.74 379.21 307.54C378.83 307.34 378.2 307.19 377.53 307.29C376.85 307.4 376.32 307.74 376.03 308.05C375.73 308.36 375.65 308.62 375.72 308.67Z" fill="#040404"/>
<path d="M373.02 317.37C373.02 317.31 372.32 317.3 371.2 317.33C370.92 317.34 370.64 317.33 370.57 317.15C370.47 316.96 370.54 316.64 370.63 316.3C370.79 315.59 370.95 314.84 371.12 314.05C371.79 310.85 372.23 308.24 372.11 308.22C371.98 308.19 371.33 310.76 370.66 313.96C370.5 314.75 370.35 315.5 370.2 316.22C370.14 316.55 370.02 316.94 370.23 317.34C370.34 317.54 370.57 317.66 370.75 317.68C370.94 317.71 371.09 317.69 371.23 317.67C372.34 317.54 373.03 317.43 373.02 317.37Z" fill="#040404"/>
<path d="M374.38 329.6C374.38 329.6 379.66 329.24 384.43 325.26C384.34 325.29 382.29 331.35 374.59 331.72L374.38 329.6Z" fill="#7E5B48"/>
<path d="M373.89 319.93C374.2 319.35 374.84 318.96 375.54 318.93C376.02 318.91 376.53 319.06 376.88 319.4C377.23 319.74 377.37 320.28 377.17 320.69C376.94 321.15 376.34 321.34 375.8 321.27C375.26 321.2 374.76 320.93 374.28 320.66C374.15 320.58 374.01 320.5 373.92 320.39C373.83 320.27 373.78 320.11 373.86 319.98" fill="#AD6742"/>
<path d="M376.35 317.63C376.17 317.65 376.35 318.83 375.47 319.83C374.59 320.83 373.31 320.89 373.32 321.06C373.31 321.14 373.64 321.25 374.17 321.18C374.7 321.12 375.43 320.83 375.97 320.22C376.51 319.61 376.67 318.88 376.63 318.39C376.61 317.88 376.43 317.61 376.35 317.63Z" fill="#040404"/>
<path d="M374.74 305.7C374.89 305.98 375.96 305.67 377.26 305.62C378.56 305.55 379.65 305.76 379.78 305.47C379.84 305.33 379.61 305.08 379.15 304.86C378.69 304.64 377.99 304.47 377.21 304.5C376.43 304.54 375.74 304.77 375.31 305.03C374.88 305.29 374.68 305.56 374.74 305.7Z" fill="#040404"/>
<path d="M364.88 306.92C365.11 307.14 365.82 306.76 366.72 306.61C367.62 306.43 368.41 306.52 368.55 306.23C368.61 306.09 368.45 305.86 368.08 305.68C367.71 305.5 367.13 305.39 366.52 305.51C365.9 305.63 365.4 305.93 365.13 306.24C364.84 306.54 364.78 306.81 364.88 306.92Z" fill="#040404"/>
<path d="M392.49 323C390.39 323.78 390.02 322.71 388.16 321.45C386.3 320.2 385.1 318.02 385.03 315.78C384.97 313.8 385.7 311.66 384.74 309.93C383.47 307.64 379.95 307.43 378.66 305.15C377.91 303.83 378.12 302.1 377.31 300.82C376.55 299.61 375.06 299.08 373.66 298.81C372.26 298.54 370.78 298.43 369.53 297.74C368.28 297.05 367.32 295.52 367.85 294.19C373.85 293.97 379.88 294.46 385.77 295.66C387.13 295.94 388.58 296.3 389.52 297.33C390.52 298.41 390.73 299.99 390.89 301.45C391.68 308.59 392.47 315.74 393.26 322.88" fill="#040404"/>
<path d="M394.91 306.1C394.75 303.46 396.5 300.81 399 299.94C401.5 299.06 404.52 300.03 406.05 302.19C407.5 304.25 407.55 307.02 406.88 309.45C406.09 312.33 403.98 315.19 401.01 315.52C398.21 315.83 395.59 313.75 394.37 311.21C393.15 308.67 393.02 305.77 392.92 302.96" fill="black"/>
<path d="M398.17 316.68C398.18 316.69 398.34 316.53 398.51 316.16C398.68 315.8 398.85 315.22 398.85 314.49C398.85 313.76 398.7 312.9 398.38 312.01C398.07 311.11 397.61 310.18 397.21 309.18C396.81 308.19 396.55 307.2 396.58 306.29C396.6 305.39 396.9 304.57 396.97 303.85C397.06 303.13 396.94 302.52 396.75 302.15C396.56 301.78 396.37 301.65 396.36 301.66C396.34 301.68 396.49 301.84 396.63 302.2C396.77 302.56 396.84 303.12 396.73 303.81C396.63 304.5 396.31 305.29 396.26 306.27C396.21 307.25 396.49 308.29 396.89 309.3C397.29 310.32 397.76 311.24 398.08 312.11C398.4 312.98 398.58 313.8 398.6 314.49C398.67 315.89 398.1 316.65 398.17 316.68Z" fill="#455A64"/>
<path d="M396.79 307.17C396.77 307.19 397.23 307.68 398.19 308.16C399.14 308.64 400.63 309.05 402.27 308.82C403.91 308.59 405.24 307.79 406.01 307.06C406.8 306.34 407.11 305.74 407.08 305.72C407.03 305.68 406.65 306.22 405.85 306.87C405.06 307.52 403.77 308.25 402.22 308.47C400.66 308.69 399.23 308.34 398.29 307.93C397.33 307.54 396.82 307.12 396.79 307.17Z" fill="#455A64"/>
<path d="M397.37 308.35C397.34 308.37 397.61 308.85 398.23 309.48C398.85 310.11 399.85 310.87 401.11 311.38C402.37 311.89 403.61 312.04 404.5 312.02C405.39 312 405.92 311.84 405.91 311.81C405.9 311.75 405.36 311.82 404.5 311.77C403.64 311.73 402.46 311.54 401.24 311.05C400.03 310.56 399.04 309.87 398.4 309.3C397.76 308.73 397.42 308.31 397.37 308.35Z" fill="#455A64"/>
<path d="M397.1 319.55C397.11 319.55 397.13 319.51 397.17 319.44C397.21 319.36 397.28 319.25 397.34 319.09C397.47 318.78 397.61 318.28 397.64 317.63C397.67 316.98 397.55 316.16 397.14 315.32C396.75 314.48 395.99 313.62 394.91 313.14C393.87 312.63 392.58 312.36 391.63 311.43C391.16 310.98 390.89 310.34 390.91 309.64C390.91 308.95 391.11 308.23 391.27 307.48C391.65 305.97 391.38 304.2 390.42 302.78C389.94 302.07 389.3 301.45 388.5 301.04C387.71 300.62 386.8 300.48 385.92 300.42C385.03 300.36 384.16 300.38 383.33 300.27C382.5 300.16 381.69 299.92 381.06 299.46C380.41 299 380.05 298.28 379.82 297.53C379.59 296.78 379.41 296 379.09 295.29C378.47 293.87 377.51 292.68 376.37 291.89C375.23 291.1 373.93 290.75 372.75 290.76C371.57 290.76 370.52 291.15 369.77 291.7C369.01 292.25 368.53 292.92 368.25 293.51C367.97 294.1 367.87 294.61 367.84 294.95C367.81 295.29 367.84 295.47 367.84 295.47C367.89 295.48 367.78 294.72 368.36 293.57C368.66 293.01 369.14 292.37 369.88 291.86C370.61 291.34 371.62 290.99 372.75 291C373.87 291.01 375.12 291.36 376.2 292.13C377.29 292.89 378.2 294.05 378.79 295.42C379.1 296.1 379.27 296.85 379.5 297.63C379.73 298.4 380.13 299.22 380.85 299.73C381.56 300.25 382.42 300.5 383.28 300.61C384.15 300.73 385.02 300.71 385.89 300.77C386.75 300.83 387.61 300.96 388.33 301.35C389.07 301.72 389.67 302.31 390.12 302.97C391.02 304.31 391.29 305.96 390.94 307.41C390.79 308.15 390.58 308.88 390.58 309.64C390.56 310.4 390.89 311.15 391.4 311.63C392.44 312.63 393.77 312.87 394.78 313.36C395.82 313.82 396.55 314.6 396.94 315.4C397.35 316.2 397.48 316.99 397.47 317.62C397.49 318.91 397.05 319.54 397.1 319.55Z" fill="#455A64"/>
<path d="M393.09 297.59C393.09 297.59 393.15 297.46 393.13 297.21C393.12 296.96 393.02 296.57 392.7 296.2C392.39 295.83 391.89 295.47 391.21 295.32C390.52 295.17 389.73 295.31 388.93 295.6C388.13 295.89 387.32 296.35 386.41 296.68C385.52 297 384.42 297.2 383.48 296.68C382.54 296.17 381.94 295.14 381.34 294.1C380.74 293.04 379.97 292.01 379 291.14C377.07 289.39 374.67 288.36 372.41 288.22C371.28 288.16 370.18 288.35 369.27 288.8C368.36 289.25 367.64 289.92 367.2 290.66C366.75 291.4 366.6 292.21 366.66 292.89C366.71 293.57 366.94 294.14 367.19 294.54C367.44 294.95 367.72 295.2 367.93 295.35C368.13 295.5 368.26 295.55 368.26 295.54C368.3 295.5 367.78 295.28 367.31 294.47C367.08 294.07 366.89 293.53 366.86 292.88C366.82 292.23 366.98 291.48 367.42 290.79C367.85 290.1 368.54 289.48 369.41 289.06C370.28 288.65 371.32 288.47 372.41 288.54C374.58 288.69 376.91 289.7 378.78 291.4C379.72 292.25 380.46 293.24 381.06 294.28C381.67 295.3 382.29 296.4 383.34 296.97C383.86 297.25 384.45 297.34 384.99 297.31C385.54 297.28 386.05 297.13 386.52 296.96C387.46 296.6 388.25 296.13 389.03 295.83C389.79 295.53 390.55 295.39 391.18 295.51C391.81 295.63 392.3 295.96 392.61 296.29C392.92 296.63 393.04 296.98 393.07 297.21C393.1 297.45 393.07 297.59 393.09 297.59Z" fill="#455A64"/>
<defs>
<linearGradient id="paint0_linear_1185_494" x1="182.627" y1="354.28" x2="301.647" y2="354.28" gradientUnits="userSpaceOnUse">
<stop stop-color="#FF5F00"/>
<stop offset="1" stop-color="#FACC15"/>
</linearGradient>
</defs>
</svg>
