<svg width="420" height="398" viewBox="0 0 420 398" fill="none" xmlns="http://www.w3.org/2000/svg">
<path d="M2.18401 222.288L0.528015 221.328V201.408L2.18401 202.368V222.288Z" fill="#26231F"/>
<path d="M113.88 157.824L2.18402 222.288V202.368L113.88 137.904V157.824Z" fill="#38322D"/>
<path d="M2.18401 202.368L0.528015 201.408L112.2 136.944L113.88 137.904L2.18401 202.368Z" fill="#4F463D"/>
<path d="M273.648 358.896L24.744 215.184V188.856L273.648 332.544V358.896Z" fill="#26231F"/>
<path d="M322.608 330.624L273.648 358.896V332.544L322.608 304.296V330.624Z" fill="#898783"/>
<path d="M273.648 332.544L24.744 188.856L73.704 160.584L322.608 304.296L273.648 332.544Z" fill="#3F3932"/>
<path d="M68.064 214.176C62.592 211.008 57.648 210.744 54.096 212.88L41.832 219.96L69.792 267.792L82.056 260.712C85.536 258.624 87.672 254.28 87.672 248.112C87.648 235.608 78.888 220.416 68.064 214.176Z" fill="#26231F"/>
<path d="M75.384 255.168C75.384 267.648 66.624 272.712 55.8 266.472C44.976 260.232 36.216 245.04 36.216 232.536C36.216 220.032 44.976 214.992 55.8 221.232C66.624 227.496 75.384 242.688 75.384 255.168Z" fill="#3F3932"/>
<path d="M55.776 259.992C48.312 255.864 42.168 245.472 42.048 236.76C41.928 228.048 47.856 224.328 55.296 228.456C62.76 232.584 68.904 242.976 69.024 251.688C69.144 260.4 63.216 264.12 55.776 259.992Z" fill="#A8A8A8"/>
<path d="M55.728 257.784C49.32 254.232 44.04 245.304 43.92 237.816C43.8 230.328 48.912 227.136 55.32 230.688C61.728 234.24 67.008 243.168 67.128 250.656C67.248 258.144 62.136 261.336 55.728 257.784Z" fill="#848381"/>
<path d="M56.304 251.52C52.68 249.504 49.704 244.464 49.632 240.24C49.56 236.016 52.464 234.192 56.064 236.208C59.664 238.224 62.664 243.264 62.736 247.488C62.808 251.712 59.928 253.512 56.304 251.52Z" fill="#A8A8A8"/>
<path opacity="0.3" d="M63.408 240.048C61.824 237.192 59.544 234.672 57.048 233.304C52.32 230.688 48.576 233.04 48.648 238.56C48.72 244.08 52.632 250.656 57.336 253.272C61.872 255.768 65.496 253.704 65.712 248.664C65.712 248.448 65.736 248.232 65.712 248.016C65.712 245.4 64.824 242.568 63.408 240.048ZM62.736 247.992C62.568 251.856 59.784 253.44 56.304 251.52C52.68 249.528 49.704 244.464 49.632 240.24C49.56 236.016 52.464 234.192 56.064 236.208C57.984 237.264 59.736 239.184 60.936 241.392C61.488 242.376 61.92 243.408 62.232 244.44C62.544 245.472 62.712 246.504 62.736 247.512C62.76 247.656 62.736 247.824 62.736 247.992Z" fill="#A8A8A8"/>
<path d="M231.192 320.376L0 186.912V65.4238L231.192 198.912V320.376Z" fill="#FF6315"/>
<path d="M344.52 254.952L231.192 320.376V198.912L344.52 133.488V254.952Z" fill="#E84D00"/>
<path d="M231.192 198.912L0 65.424L113.328 0L344.52 133.488L231.192 198.912Z" fill="#FF5F00"/>
<path d="M417.6 235.368C417.312 235.2 416.88 235.224 416.424 235.488L411.648 238.248C410.76 238.776 410.016 240 410.016 241.032L410.04 258.576C410.04 259.08 410.232 259.44 410.52 259.608L411.936 260.448L419.016 236.184L417.6 235.368Z" fill="#E84D00"/>
<path d="M419.472 237.216C419.472 236.184 418.728 235.8 417.84 236.304L413.064 239.064C412.176 239.592 411.432 240.816 411.432 241.848L411.456 259.392C411.456 260.424 412.2 260.832 413.088 260.328L417.864 257.568C418.752 257.04 419.496 255.792 419.496 254.76L419.472 237.216Z" fill="#FF5F00"/>
<path d="M345.36 178.272L257.304 229.128C255.192 230.352 253.896 232.584 253.896 235.032V331.824L290.664 355.08L291.192 378.432L322.464 396.48C324.192 397.488 326.328 397.488 328.056 396.48L415.104 346.224C416.832 345.216 417.912 343.368 417.912 341.376V285.096C417.912 284.184 417.6 283.296 417 282.6L415.512 280.824C415.512 280.824 413.256 230.232 413.256 230.136C413.256 230.112 414.048 229.584 414.144 229.464C414.312 229.272 414.312 229.128 414.312 228.888C414.312 228.888 414.312 218.616 414.312 218.544C414.312 218.232 414.312 217.944 414.312 217.632C414.312 215.28 413.064 213.12 411.024 211.944L352.704 178.272C350.4 176.976 347.616 176.976 345.36 178.272Z" fill="url(#paint0_linear_1326_1216)"/>
<path d="M255.888 230.208L318.072 266.112C320.28 267.384 322.968 267.384 325.176 266.112L413.664 215.016C413.112 213.768 412.224 212.664 411 211.968L352.68 178.296C350.424 177 347.64 177 345.384 178.296L257.328 229.152C256.776 229.416 256.296 229.8 255.888 230.208Z" fill="#FF5F00"/>
<path d="M416.616 282.312L413.184 230.136L325.056 281.016C323.616 281.856 321.816 281.856 320.376 281.016L319.224 280.344C318.384 279.864 317.352 280.464 317.352 281.424L321.408 333.072C321.48 334.056 322.032 334.944 322.872 335.448L323.64 335.904C324.6 336.48 325.8 336.504 326.76 335.928L415.2 284.856C416.16 284.376 416.688 283.368 416.616 282.312Z" fill="#282523"/>
<path d="M284.76 260.424C283.92 259.944 282.888 260.544 282.888 261.504V288.576C282.888 290.568 283.848 292.44 285.48 293.616L313.512 313.08C314.112 313.512 314.976 313.08 314.976 312.336L312.48 277.68C312.48 276.888 312.048 276.144 311.376 275.76L284.76 260.424Z" fill="#282523"/>
<path d="M286.032 291.12C284.688 290.136 283.872 288.552 283.872 286.872V262.488C283.872 262.296 284.04 262.2 284.16 262.2L310.896 277.584C311.28 277.8 311.52 278.232 311.52 278.664L313.584 310.104L286.032 291.12Z" fill="#35312D"/>
<path d="M412.944 232.8L324.864 283.656C324.24 284.016 323.856 284.712 323.928 285.456L327 326.568C327.12 328.08 328.752 328.944 330.072 328.176L415.152 279.048C415.896 278.616 416.328 277.8 416.28 276.936L413.352 232.992C413.328 232.824 413.112 232.704 412.944 232.8Z" fill="#35312D"/>
<path d="M392.952 340.632L355.056 362.52L348.816 327.888L399.168 298.8L392.952 340.632Z" fill="#282523"/>
<path opacity="0.3" d="M394.44 330.624L394.056 333.192L353.952 356.352L353.568 354.216L394.44 330.624ZM354.672 360.432L393.312 338.136L393.696 335.568L354.288 358.32L354.672 360.432ZM351.744 344.088L396.264 318.384L396.648 315.816L351.36 341.952L351.744 344.088ZM352.824 350.136L353.208 352.272L394.776 328.272L395.16 325.704L352.824 350.136ZM349.872 333.768L350.256 335.904L397.728 308.496L398.112 305.928L349.872 333.768ZM352.08 346.032L352.464 348.168L395.52 323.304L395.904 320.736L352.08 346.032ZM349.152 329.688L349.536 331.824L398.472 303.576L398.856 301.008L349.152 329.688ZM350.616 337.872L351 340.008L396.984 313.464L397.368 310.896L350.616 337.872Z" fill="#454545"/>
<path d="M244.512 338.016L259.248 329.472L271.752 343.512L244.44 359.304L244.512 338.016Z" fill="#E84D00"/>
<path d="M264.408 334.176L252.168 341.256L280.08 389.04L292.32 381.96C293.76 381.096 293.328 366.168 287.952 356.352C280.392 342.576 266.472 332.928 264.408 334.176Z" fill="#26231F"/>
<path d="M285.672 376.44C285.672 388.92 276.912 393.984 266.112 387.744C255.312 381.504 246.552 366.336 246.552 353.856C246.552 341.376 255.312 336.312 266.112 342.552C276.912 348.792 285.672 363.96 285.672 376.44Z" fill="#3F3932"/>
<path d="M275.746 382.81C281.288 379.631 281.333 369.3 275.846 359.734C270.36 350.169 261.42 344.991 255.878 348.169C250.336 351.348 250.292 361.679 255.778 371.245C261.265 380.81 270.205 385.988 275.746 382.81Z" fill="#A8A8A8"/>
<path d="M270.917 377.643C274.539 375.566 274.572 368.82 270.992 362.576C267.411 356.333 261.572 352.955 257.95 355.032C254.328 357.11 254.294 363.855 257.875 370.099C261.456 376.342 267.295 379.72 270.917 377.643Z" fill="#A8A8A8"/>
<path d="M277.848 373.08C277.872 372.768 277.872 372.48 277.872 372.144C277.824 368.496 276.576 364.536 274.608 360.96C272.376 356.928 269.184 353.424 265.656 351.48C259.032 347.808 253.752 351.12 253.872 358.872C253.992 366.624 259.464 375.864 266.088 379.536C272.424 383.064 277.536 380.16 277.848 373.08ZM264.576 377.088C259.488 374.28 255.288 367.176 255.192 361.224C255.096 355.272 259.152 352.728 264.24 355.56C266.928 357.048 269.376 359.76 271.104 362.832C272.616 365.568 273.576 368.616 273.624 371.424C273.624 371.664 273.624 371.904 273.624 372.144C273.408 377.568 269.472 379.8 264.576 377.088Z" fill="#BEBEBE"/>
<path d="M274.584 360.96L271.128 362.832C272.64 365.568 273.6 368.616 273.648 371.424C273.648 371.664 273.648 371.904 273.648 372.144L277.848 373.08C277.872 372.768 277.872 372.48 277.872 372.144C277.8 368.52 276.552 364.536 274.584 360.96Z" fill="#E4E4E4"/>
<path d="M242.232 335.616L249.024 331.68L263.136 328.056L256.344 331.992L242.232 335.616Z" fill="#E84D00"/>
<path d="M256.344 331.992L263.136 328.056L283.08 339.576L276.312 343.512L256.344 331.992Z" fill="#E84D00"/>
<path d="M290.376 363.432L297.168 359.472L297.096 381.864L290.328 385.8L290.376 363.432Z" fill="#E84D00"/>
<path d="M276.312 343.512L283.08 339.576L297.168 359.472L290.376 363.432L276.312 343.512Z" fill="#E84D00"/>
<path d="M276.312 343.512L290.376 363.432L290.328 385.8L288.048 384.48L288.096 363.192L275.352 345.576L257.28 335.16L244.512 338.016L244.44 359.304L242.16 357.984L242.232 335.616L256.344 331.992L276.312 343.512Z" fill="url(#paint1_linear_1326_1216)"/>
<path d="M319.032 363.312C318.864 363.264 297.552 350.952 297.552 350.952C297.456 350.856 284.376 332.16 284.376 332.16L279.84 329.352C279.744 329.304 279.696 329.184 279.696 329.088V255.576C279.696 255.456 279.768 255.36 279.864 255.288C279.96 255.24 280.08 255.24 280.176 255.288L315.408 275.712C315.504 275.76 315.552 275.856 315.576 275.976L319.344 335.904V362.976C319.344 363.096 319.272 363.192 319.176 363.264C319.128 363.312 319.08 363.312 319.032 363.312ZM297.912 350.448L318.696 362.448V335.952L314.928 276.216L280.32 256.152V328.92L284.76 331.656C284.856 331.752 297.912 350.448 297.912 350.448Z" fill="#E84D00"/>
<path d="M318.696 370.68L299.832 359.808V379.872L318.696 390.744V370.68Z" fill="#E84D00"/>
<path opacity="0.4" d="M299.832 359.808V379.872L305.256 376.728V362.928L299.832 359.808Z" fill="#C9C6C3"/>
<path d="M305.256 376.728L299.832 379.872L318.696 390.744V384.504L305.256 376.728Z" fill="#454545"/>
<path d="M286.512 312.552L284.832 311.592C283.848 311.016 283.056 309.768 283.056 308.808V298.584C283.056 297.6 283.848 297.264 284.832 297.84L286.512 298.8C287.496 299.376 288.288 300.624 288.288 301.584V311.808C288.288 312.768 287.496 313.104 286.512 312.552Z" fill="#DDDBD8"/>
<path d="M285.744 299.616V310.824C286.536 311.28 287.184 311.016 287.184 310.224V301.896C287.184 301.08 286.56 300.072 285.744 299.616Z" fill="#B0ADAA"/>
<path d="M416.184 316.848L398.28 328.464L395.904 343.488L352.8 368.376L349.872 356.328L330.576 366.192L349.032 358.128L351.936 370.296L397.128 344.208L399.312 329.112L416.184 316.848Z" fill="#E84D00"/>
<path d="M414.432 330.144L402.792 340.872C401.952 341.664 401.088 341.4 401.088 340.368V332.736C401.088 331.968 401.568 331.032 402.24 330.552L413.88 321.936C414.672 321.336 415.392 321.648 415.392 322.608V328.104C415.392 328.8 415.008 329.64 414.432 330.144Z" fill="#F0FDFF"/>
<path d="M413.88 321.96L414.432 330.144C414.984 329.616 415.392 328.8 415.392 328.104V322.608C415.392 321.672 414.672 321.36 413.88 321.96Z" fill="#E9751C"/>
<path d="M334.224 376.464L345.864 373.752C346.704 373.56 347.568 372.312 347.568 371.28V363.648C347.568 362.88 347.088 362.496 346.416 362.784L334.776 367.632C333.984 367.968 333.264 369.096 333.264 370.032V375.528C333.288 376.2 333.672 376.584 334.224 376.464Z" fill="#F0FDFF"/>
<path d="M334.8 367.607L334.248 376.439C333.696 376.559 333.288 376.199 333.288 375.503V370.007C333.288 369.095 333.984 367.943 334.8 367.607Z" fill="#E9751C"/>
<path d="M275.472 211.248L337.968 175.008L365.592 190.968L303.096 227.184L275.472 211.248Z" fill="#FF5F00"/>
<path d="M303.096 227.184L365.592 190.968L375.744 206.688L313.248 242.904L303.096 227.184Z" fill="#F75200"/>
<path d="M303.096 227.184L313.248 242.904L275.448 221.088L275.472 211.248L303.096 227.184Z" fill="#E84D00"/>
<path d="M314.28 298.8C311.712 300.6 309.096 302.304 306.432 303.912C305.112 304.776 303.696 305.424 302.472 306.672L303.24 307.392C304.2 306.36 305.664 305.688 307.008 304.944C309.744 303.432 312.504 302.016 315.36 300.696C315.408 300.672 315.48 300.624 315.528 300.6C316.272 300.168 315.24 298.248 314.28 298.8Z" fill="#2C2927"/>
<path d="M314.856 307.2C312.288 309 309.672 310.704 307.008 312.312C305.688 313.176 304.272 313.824 303.048 315.072L303.816 315.792C304.776 314.76 306.24 314.088 307.584 313.344C310.32 311.832 313.08 310.416 315.936 309.096C315.984 309.072 316.056 309.024 316.104 309C316.848 308.568 315.816 306.648 314.856 307.2Z" fill="#2C2927"/>
<path d="M305.328 300.192C305.04 300.024 304.608 300.048 304.152 300.312L299.376 303.072C298.488 303.6 297.744 304.824 297.744 305.856L297.768 323.4C297.768 323.904 297.96 324.264 298.248 324.432L299.664 325.272L306.744 301.008L305.328 300.192Z" fill="#E84D00"/>
<path d="M307.224 302.04C307.224 301.008 306.48 300.624 305.592 301.128L300.816 303.888C299.928 304.416 299.184 305.64 299.184 306.672L299.208 324.216C299.208 325.248 299.952 325.656 300.84 325.152L305.616 322.392C306.504 321.864 307.248 320.616 307.248 319.584L307.224 302.04Z" fill="#FF5F00"/>
<path d="M383.208 256.752L355.752 272.592L352.8 267.048L386.136 247.8L383.208 256.752Z" fill="#282523"/>
<path opacity="0.8" d="M415.224 302.904L413.184 304.08V290.904L415.224 289.728V302.904ZM333.432 336.96L331.392 338.136V351.312L333.432 350.136V336.96Z" fill="#B0ADAA"/>
<path opacity="0.95" d="M96.672 173.16C104.184 175.512 111.864 177.288 119.448 179.376C125.232 180.984 130.944 182.784 136.344 185.544C142.776 188.832 148.344 193.2 152.52 199.344C155.208 203.4 158.04 207.384 160.752 211.392C166.992 220.608 175.08 227.784 184.344 233.616C185.04 234.048 185.808 234.36 186.552 234.744C186.624 234.648 186.672 234.552 186.72 234.432C186.24 233.952 185.736 233.496 185.256 233.016C183.144 230.88 180.888 228.888 178.896 226.632C173.952 220.944 170.352 214.368 167.04 207.6C164.424 202.2 161.952 196.728 159.168 191.448C155.76 184.992 151.272 179.472 145.368 175.224C139.632 171.12 133.2 168.888 126.504 167.208C119.52 165.456 112.44 163.92 105.456 162.216C98.784 160.608 92.232 158.568 85.992 155.664C79.488 152.64 73.104 149.376 66.72 146.064C62.112 143.664 57.648 140.976 53.472 137.784C49.368 134.64 44.592 132.288 41.472 127.8C41.352 127.824 41.208 127.896 41.088 127.944C41.208 128.472 41.256 129.12 41.544 129.552C43.824 132.792 46.008 136.128 48.48 139.2C54.936 147.216 62.184 154.296 70.584 160.128C78.672 165.72 87.312 170.232 96.672 173.16ZM186.048 243.192C183.432 241.2 180.696 239.376 178.152 237.264C169.896 230.328 162.936 222.192 156.288 213.672C152.16 208.392 148.248 202.92 143.328 198.336C139.2 194.448 134.664 191.184 129.24 189.6C124.152 188.064 118.944 186.864 113.76 185.64C108.36 184.368 102.936 183.336 97.584 181.968C90.168 180.048 83.016 177.288 76.128 173.856C69.888 170.736 63.984 167.064 59.064 161.856C58.632 161.424 58.128 161.088 57.624 160.68C57.528 160.752 57.432 160.824 57.336 160.872C57.456 161.28 57.552 161.688 57.72 162.048C60.6 168.024 64.176 173.496 68.712 178.224C72 181.68 75.432 185.064 79.08 188.064C85.248 193.176 92.664 195.792 100.128 197.976C104.544 199.272 109.152 199.824 113.664 200.76C117.432 201.552 121.248 202.176 124.896 203.304C131.016 205.176 136.488 208.464 141.552 212.424C146.304 216.144 150.912 220.104 155.592 223.992C164.616 231.48 174.216 238.08 184.464 243.648C184.992 243.96 185.616 244.128 186.168 244.368C186.264 244.272 186.36 244.2 186.432 244.104C186.408 243.792 186.312 243.36 186.048 243.192ZM173.52 244.056C172.776 243.48 171.984 242.904 171.168 242.352C168.336 240.384 165.36 238.632 162.624 236.496C154.872 230.472 147.24 224.28 139.464 218.256C134.568 214.464 129.264 211.44 123.48 209.328C118.944 207.648 114.192 206.808 109.488 205.944C103.152 204.816 96.768 203.712 90.624 201.624C84.312 199.512 78.504 196.632 74.448 190.92C74.232 190.608 73.896 190.416 73.608 190.152C73.536 190.176 73.44 190.248 73.368 190.296C73.536 190.776 73.632 191.232 73.824 191.688C77.232 198.648 81.912 204.528 88.176 208.944C94.728 213.576 102.192 215.832 109.824 217.656C114 218.64 118.248 219.48 122.4 220.704C132.36 223.632 141.84 227.88 151.032 232.704C157.896 236.304 164.64 240.096 171.456 243.768C172.272 244.2 173.16 244.584 174 244.992C174.072 244.92 174.096 244.848 174.168 244.752C174 244.56 173.808 244.248 173.52 244.056Z" fill="#F4F4F4"/>
<defs>
<linearGradient id="paint0_linear_1326_1216" x1="322.073" y1="287.261" x2="329.409" y2="287.261" gradientUnits="userSpaceOnUse">
<stop stop-color="#EA5F00"/>
<stop offset="1" stop-color="#FF5F00"/>
</linearGradient>
<linearGradient id="paint1_linear_1326_1216" x1="242.17" y1="358.893" x2="290.381" y2="358.893" gradientUnits="userSpaceOnUse">
<stop stop-color="#EA5F00"/>
<stop offset="1" stop-color="#FF5F00"/>
</linearGradient>
</defs>
</svg>
